G04 #@! TF.GenerationSoftware,KiCad,Pcbnew,(6.0.10)*
G04 #@! TF.CreationDate,2024-06-10T21:48:35+09:00*
G04 #@! TF.ProjectId,icb33h_pwb_rev2,69636233-3368-45f7-9077-625f72657632,rev?*
G04 #@! TF.SameCoordinates,Original*
G04 #@! TF.FileFunction,Soldermask,Top*
G04 #@! TF.FilePolarity,Negative*
%FSLAX46Y46*%
G04 Gerber Fmt 4.6, Leading zero omitted, Abs format (unit mm)*
G04 Created by KiCad (PCBNEW (6.0.10)) date 2024-06-10 21:48:35*
%MOMM*%
%LPD*%
G01*
G04 APERTURE LIST*
G04 Aperture macros list*
%AMRoundRect*
0 Rectangle with rounded corners*
0 $1 Rounding radius*
0 $2 $3 $4 $5 $6 $7 $8 $9 X,Y pos of 4 corners*
0 Add a 4 corners polygon primitive as box body*
4,1,4,$2,$3,$4,$5,$6,$7,$8,$9,$2,$3,0*
0 Add four circle primitives for the rounded corners*
1,1,$1+$1,$2,$3*
1,1,$1+$1,$4,$5*
1,1,$1+$1,$6,$7*
1,1,$1+$1,$8,$9*
0 Add four rect primitives between the rounded corners*
20,1,$1+$1,$2,$3,$4,$5,0*
20,1,$1+$1,$4,$5,$6,$7,0*
20,1,$1+$1,$6,$7,$8,$9,0*
20,1,$1+$1,$8,$9,$2,$3,0*%
%AMFreePoly0*
4,1,19,0.058779,1.180902,0.070711,1.170711,1.170711,0.070711,1.198769,0.015643,1.200000,0.000000,1.200000,-1.100000,1.180902,-1.158779,1.130902,-1.195106,1.100000,-1.200000,-1.100000,-1.200000,-1.158779,-1.180902,-1.195106,-1.130902,-1.200000,-1.100000,-1.200000,1.100000,-1.180902,1.158779,-1.130902,1.195106,-1.100000,1.200000,0.000000,1.200000,0.058779,1.180902,0.058779,1.180902,
$1*%
%AMFreePoly1*
4,1,19,1.158779,1.180902,1.195106,1.130902,1.200000,1.100000,1.200000,-1.100000,1.180902,-1.158779,1.130902,-1.195106,1.100000,-1.200000,0.000000,-1.200000,-0.058779,-1.180902,-0.070711,-1.170711,-1.170711,-0.070711,-1.198769,-0.015643,-1.200000,0.000000,-1.200000,1.100000,-1.180902,1.158779,-1.130902,1.195106,-1.100000,1.200000,1.100000,1.200000,1.158779,1.180902,1.158779,1.180902,
$1*%
G04 Aperture macros list end*
%ADD10C,4.500000*%
%ADD11C,2.800000*%
%ADD12RoundRect,0.900000X-1.400000X0.800000X-1.400000X-0.800000X1.400000X-0.800000X1.400000X0.800000X0*%
%ADD13RoundRect,0.450000X0.550000X-0.350000X0.550000X0.350000X-0.550000X0.350000X-0.550000X-0.350000X0*%
%ADD14C,2.600000*%
%ADD15C,3.500000*%
%ADD16RoundRect,0.450000X-0.550000X0.350000X-0.550000X-0.350000X0.550000X-0.350000X0.550000X0.350000X0*%
%ADD17FreePoly0,270.000000*%
%ADD18FreePoly1,270.000000*%
%ADD19C,1.800000*%
%ADD20RoundRect,0.550000X-0.750000X0.450000X-0.750000X-0.450000X0.750000X-0.450000X0.750000X0.450000X0*%
G04 APERTURE END LIST*
D10*
X105500000Y-76000000D03*
X202000000Y-103500000D03*
D11*
X153200000Y-70000000D03*
X153700000Y-74000000D03*
X153200000Y-78000000D03*
D12*
X146950000Y-80250000D03*
D13*
X87000000Y-64500000D03*
X87000000Y-62500000D03*
X87000000Y-60500000D03*
X89500000Y-64500000D03*
X89500000Y-62500000D03*
X89500000Y-60500000D03*
D14*
X88250000Y-67750000D03*
D15*
X212000000Y-69500000D03*
D16*
X87500000Y-83500000D03*
X87500000Y-86000000D03*
X87500000Y-88500000D03*
X93000000Y-83500000D03*
X93000000Y-86000000D03*
X93000000Y-88500000D03*
D17*
X85750000Y-82250000D03*
D18*
X94750000Y-89750000D03*
D15*
X137000000Y-103500000D03*
D16*
X167000000Y-72000000D03*
X167000000Y-74000000D03*
X167000000Y-76000000D03*
X164500000Y-72000000D03*
X164500000Y-74000000D03*
X164500000Y-76000000D03*
D14*
X165750000Y-68750000D03*
X165750000Y-79250000D03*
D19*
X65500000Y-96000000D03*
X65500000Y-98500000D03*
X65500000Y-101000000D03*
X68000000Y-96000000D03*
X68000000Y-98500000D03*
X68000000Y-101000000D03*
D20*
X60500000Y-93500000D03*
X60500000Y-96000000D03*
X60500000Y-101000000D03*
X60500000Y-103500000D03*
D14*
X55500000Y-98500000D03*
M02*
