G04 #@! TF.GenerationSoftware,KiCad,Pcbnew,(6.0.10)*
G04 #@! TF.CreationDate,2024-06-10T21:48:35+09:00*
G04 #@! TF.ProjectId,icb33h_pwb_rev2,69636233-3368-45f7-9077-625f72657632,rev?*
G04 #@! TF.SameCoordinates,Original*
G04 #@! TF.FileFunction,Profile,NP*
%FSLAX46Y46*%
G04 Gerber Fmt 4.6, Leading zero omitted, Abs format (unit mm)*
G04 Created by KiCad (PCBNEW (6.0.10)) date 2024-06-10 21:48:35*
%MOMM*%
%LPD*%
G01*
G04 APERTURE LIST*
G04 #@! TA.AperFunction,Profile*
%ADD10C,0.200000*%
G04 #@! TD*
G04 APERTURE END LIST*
D10*
X87500000Y-56500000D02*
X59500000Y-56500000D01*
X211000000Y-88000000D02*
X218500000Y-88000000D01*
X57500000Y-61500000D02*
X58500000Y-61500000D01*
X148500000Y-68000000D02*
X148500000Y-66000000D01*
X94000000Y-60500000D02*
X91000000Y-60500000D01*
X188500000Y-110000000D02*
X211000000Y-110000000D01*
X121000000Y-66000000D02*
X118500000Y-61500000D01*
X76500000Y-110000000D02*
X76500000Y-102500000D01*
X114500000Y-60500000D02*
G75*
G03*
X115500000Y-61500000I1000000J0D01*
G01*
X218500000Y-76000000D02*
X215500000Y-76000000D01*
X59500000Y-56500000D02*
X59500000Y-60500000D01*
X55000000Y-106000000D02*
X55000000Y-110000000D01*
X172500000Y-66000000D02*
X149500000Y-66000000D01*
X175500000Y-69000000D02*
X172500000Y-69000000D01*
X148500000Y-66000000D02*
X149500000Y-66000000D01*
X55000000Y-106000000D02*
G75*
G03*
X54000000Y-105000000I-1000000J0D01*
G01*
X175500000Y-66000000D02*
X175500000Y-69000000D01*
X114500000Y-60500000D02*
X114500000Y-56500000D01*
X109000000Y-92500000D02*
G75*
G03*
X109000000Y-92500000I-5500000J0D01*
G01*
X114500000Y-56500000D02*
X94000000Y-56500000D01*
X145500000Y-66000000D02*
X121000000Y-66000000D01*
X87500000Y-57500000D02*
G75*
G03*
X88000000Y-58000000I500000J0D01*
G01*
X56500000Y-56500000D02*
X54000000Y-56500000D01*
X56500000Y-56500000D02*
X56500000Y-60500000D01*
X51000000Y-75000000D02*
X55000000Y-75000000D01*
X215500000Y-76000000D02*
X215500000Y-73000000D01*
X218500000Y-73000000D02*
X218500000Y-66000000D01*
X51000000Y-88500000D02*
X54000000Y-88500000D01*
X188500000Y-106500000D02*
X188500000Y-110000000D01*
X185000000Y-110000000D02*
X185000000Y-106500000D01*
X218500000Y-66000000D02*
X175500000Y-66000000D01*
X122500000Y-102500000D02*
X122500000Y-110000000D01*
X211000000Y-110000000D02*
X211000000Y-88000000D01*
X55000000Y-110000000D02*
X76500000Y-110000000D01*
X145500000Y-66000000D02*
X145500000Y-68000000D01*
X94000000Y-56500000D02*
X94000000Y-60500000D01*
X54000000Y-88500000D02*
X54000000Y-91500000D01*
X88500000Y-58000000D02*
G75*
G03*
X89000000Y-57500000I0J500000D01*
G01*
X185000000Y-106500000D02*
X188500000Y-106500000D01*
X54000000Y-91500000D02*
X52000000Y-91500000D01*
X146500000Y-69000000D02*
X147600000Y-69000000D01*
X122500000Y-110000000D02*
X185000000Y-110000000D01*
X54000000Y-105000000D02*
X52000000Y-105000000D01*
X55000000Y-77000000D02*
X51000000Y-77000000D01*
X87500000Y-56500000D02*
X87500000Y-57500000D01*
X54000000Y-56500000D02*
X54000000Y-60000000D01*
X172500000Y-69000000D02*
X172500000Y-66000000D01*
X218500000Y-88000000D02*
X218500000Y-76000000D01*
X54000000Y-60000000D02*
X51000000Y-60000000D01*
X89000000Y-56500000D02*
X89000000Y-57500000D01*
X91000000Y-60500000D02*
X91000000Y-56500000D01*
X51000000Y-60000000D02*
X51000000Y-75000000D01*
X51000000Y-77000000D02*
X51000000Y-88500000D01*
X52000000Y-91500000D02*
X52000000Y-105000000D01*
X55000000Y-75000000D02*
X55000000Y-77000000D01*
X91000000Y-56500000D02*
X89000000Y-56500000D01*
X147600004Y-69000040D02*
G75*
G03*
X148500000Y-68000000I-105604J1000040D01*
G01*
X145500000Y-68000000D02*
G75*
G03*
X146500000Y-69000000I1000000J0D01*
G01*
X88500000Y-58000000D02*
X88000000Y-58000000D01*
X58500000Y-61500000D02*
G75*
G03*
X59500000Y-60500000I0J1000000D01*
G01*
X115500000Y-61500000D02*
X118500000Y-61500000D01*
X56500000Y-60500000D02*
G75*
G03*
X57500000Y-61500000I1000000J0D01*
G01*
X215500000Y-73000000D02*
X218500000Y-73000000D01*
X76500000Y-102500000D02*
X122500000Y-102500000D01*
M02*
