M48
; DRILL file {KiCad (6.0.10)} date Mon Jun 10 21:48:41 2024
; FORMAT={-:-/ absolute / metric / decimal}
; #@! TF.CreationDate,2024-06-10T21:48:41+09:00
; #@! TF.GenerationSoftware,Kicad,Pcbnew,(6.0.10)
; #@! TF.FileFunction,Plated,1,2,PTH
FMAT,2
METRIC
; #@! TA.AperFunction,Plated,PTH,ComponentDrill
T1C0.800
; #@! TA.AperFunction,Plated,PTH,ComponentDrill
T2C1.200
; #@! TA.AperFunction,Plated,PTH,ComponentDrill
T3C1.500
; #@! TA.AperFunction,Plated,PTH,ComponentDrill
T4C1.600
; #@! TA.AperFunction,Plated,PTH,ComponentDrill
T5C2.600
%
G90
G05
T1
X65.5Y-96.0
X65.5Y-98.5
X65.5Y-101.0
X68.0Y-96.0
X68.0Y-98.5
X68.0Y-101.0
X87.0Y-60.5
X87.0Y-62.5
X87.0Y-64.5
X87.5Y-83.5
X87.5Y-86.0
X87.5Y-88.5
X89.5Y-60.5
X89.5Y-62.5
X89.5Y-64.5
X93.0Y-83.5
X93.0Y-86.0
X93.0Y-88.5
X164.5Y-72.0
X164.5Y-74.0
X164.5Y-76.0
X167.0Y-72.0
X167.0Y-74.0
X167.0Y-76.0
T2
X55.5Y-98.5
X60.5Y-93.5
X60.5Y-96.0
X60.5Y-101.0
X60.5Y-103.5
X88.25Y-67.75
X165.75Y-68.75
X165.75Y-79.25
T3
X85.75Y-82.25
X94.75Y-89.75
T4
X153.2Y-70.0
X153.2Y-78.0
X153.7Y-74.0
T5
X146.95Y-80.25
T0
M30
