G04 #@! TF.GenerationSoftware,KiCad,Pcbnew,(6.0.10)*
G04 #@! TF.CreationDate,2024-06-10T21:48:35+09:00*
G04 #@! TF.ProjectId,icb33h_pwb_rev2,69636233-3368-45f7-9077-625f72657632,rev?*
G04 #@! TF.SameCoordinates,Original*
G04 #@! TF.FileFunction,Legend,Bot*
G04 #@! TF.FilePolarity,Positive*
%FSLAX46Y46*%
G04 Gerber Fmt 4.6, Leading zero omitted, Abs format (unit mm)*
G04 Created by KiCad (PCBNEW (6.0.10)) date 2024-06-10 21:48:35*
%MOMM*%
%LPD*%
G01*
G04 APERTURE LIST*
G04 Aperture macros list*
%AMRoundRect*
0 Rectangle with rounded corners*
0 $1 Rounding radius*
0 $2 $3 $4 $5 $6 $7 $8 $9 X,Y pos of 4 corners*
0 Add a 4 corners polygon primitive as box body*
4,1,4,$2,$3,$4,$5,$6,$7,$8,$9,$2,$3,0*
0 Add four circle primitives for the rounded corners*
1,1,$1+$1,$2,$3*
1,1,$1+$1,$4,$5*
1,1,$1+$1,$6,$7*
1,1,$1+$1,$8,$9*
0 Add four rect primitives between the rounded corners*
20,1,$1+$1,$2,$3,$4,$5,0*
20,1,$1+$1,$4,$5,$6,$7,0*
20,1,$1+$1,$6,$7,$8,$9,0*
20,1,$1+$1,$8,$9,$2,$3,0*%
%AMFreePoly0*
4,1,19,0.058779,1.180902,0.070711,1.170711,1.170711,0.070711,1.198769,0.015643,1.200000,0.000000,1.200000,-1.100000,1.180902,-1.158779,1.130902,-1.195106,1.100000,-1.200000,-1.100000,-1.200000,-1.158779,-1.180902,-1.195106,-1.130902,-1.200000,-1.100000,-1.200000,1.100000,-1.180902,1.158779,-1.130902,1.195106,-1.100000,1.200000,0.000000,1.200000,0.058779,1.180902,0.058779,1.180902,
$1*%
%AMFreePoly1*
4,1,19,1.158779,1.180902,1.195106,1.130902,1.200000,1.100000,1.200000,-1.100000,1.180902,-1.158779,1.130902,-1.195106,1.100000,-1.200000,0.000000,-1.200000,-0.058779,-1.180902,-0.070711,-1.170711,-1.170711,-0.070711,-1.198769,-0.015643,-1.200000,0.000000,-1.200000,1.100000,-1.180902,1.158779,-1.130902,1.195106,-1.100000,1.200000,1.100000,1.200000,1.158779,1.180902,1.158779,1.180902,
$1*%
G04 Aperture macros list end*
%ADD10C,0.150000*%
%ADD11C,0.200000*%
%ADD12C,4.500000*%
%ADD13C,2.800000*%
%ADD14RoundRect,0.900000X-1.400000X0.800000X-1.400000X-0.800000X1.400000X-0.800000X1.400000X0.800000X0*%
%ADD15RoundRect,0.450000X0.550000X-0.350000X0.550000X0.350000X-0.550000X0.350000X-0.550000X-0.350000X0*%
%ADD16C,2.600000*%
%ADD17C,3.500000*%
%ADD18RoundRect,0.450000X-0.550000X0.350000X-0.550000X-0.350000X0.550000X-0.350000X0.550000X0.350000X0*%
%ADD19FreePoly0,270.000000*%
%ADD20FreePoly1,270.000000*%
%ADD21C,1.800000*%
%ADD22RoundRect,0.550000X-0.750000X0.450000X-0.750000X-0.450000X0.750000X-0.450000X0.750000X0.450000X0*%
%ADD23C,5.200000*%
G04 APERTURE END LIST*
D10*
X202690476Y-93157142D02*
X202738095Y-93204761D01*
X202880952Y-93252380D01*
X202976190Y-93252380D01*
X203119047Y-93204761D01*
X203214285Y-93109523D01*
X203261904Y-93014285D01*
X203309523Y-92823809D01*
X203309523Y-92680952D01*
X203261904Y-92490476D01*
X203214285Y-92395238D01*
X203119047Y-92300000D01*
X202976190Y-92252380D01*
X202880952Y-92252380D01*
X202738095Y-92300000D01*
X202690476Y-92347619D01*
X202261904Y-93252380D02*
X202261904Y-92252380D01*
X201690476Y-93252380D01*
X201690476Y-92252380D01*
X201261904Y-92347619D02*
X201214285Y-92300000D01*
X201119047Y-92252380D01*
X200880952Y-92252380D01*
X200785714Y-92300000D01*
X200738095Y-92347619D01*
X200690476Y-92442857D01*
X200690476Y-92538095D01*
X200738095Y-92680952D01*
X201309523Y-93252380D01*
X200690476Y-93252380D01*
X209257142Y-96457142D02*
X209304761Y-96504761D01*
X209447619Y-96552380D01*
X209542857Y-96552380D01*
X209685714Y-96504761D01*
X209780952Y-96409523D01*
X209828571Y-96314285D01*
X209876190Y-96123809D01*
X209876190Y-95980952D01*
X209828571Y-95790476D01*
X209780952Y-95695238D01*
X209685714Y-95600000D01*
X209542857Y-95552380D01*
X209447619Y-95552380D01*
X209304761Y-95600000D01*
X209257142Y-95647619D01*
X208828571Y-96028571D02*
X208495238Y-96028571D01*
X208352380Y-96552380D02*
X208828571Y-96552380D01*
X208828571Y-95552380D01*
X208352380Y-95552380D01*
X207447619Y-96552380D02*
X207923809Y-96552380D01*
X207923809Y-95552380D01*
X206638095Y-96552380D02*
X207114285Y-96552380D01*
X207114285Y-95552380D01*
X206542857Y-96647619D02*
X205780952Y-96647619D01*
X205019047Y-95600000D02*
X205114285Y-95552380D01*
X205257142Y-95552380D01*
X205400000Y-95600000D01*
X205495238Y-95695238D01*
X205542857Y-95790476D01*
X205590476Y-95980952D01*
X205590476Y-96123809D01*
X205542857Y-96314285D01*
X205495238Y-96409523D01*
X205400000Y-96504761D01*
X205257142Y-96552380D01*
X205161904Y-96552380D01*
X205019047Y-96504761D01*
X204971428Y-96457142D01*
X204971428Y-96123809D01*
X205161904Y-96123809D01*
X204542857Y-96552380D02*
X204542857Y-95552380D01*
X203971428Y-96552380D01*
X203971428Y-95552380D01*
X203495238Y-96552380D02*
X203495238Y-95552380D01*
X203257142Y-95552380D01*
X203114285Y-95600000D01*
X203019047Y-95695238D01*
X202971428Y-95790476D01*
X202923809Y-95980952D01*
X202923809Y-96123809D01*
X202971428Y-96314285D01*
X203019047Y-96409523D01*
X203114285Y-96504761D01*
X203257142Y-96552380D01*
X203495238Y-96552380D01*
X217490476Y-77457142D02*
X217538095Y-77504761D01*
X217680952Y-77552380D01*
X217776190Y-77552380D01*
X217919047Y-77504761D01*
X218014285Y-77409523D01*
X218061904Y-77314285D01*
X218109523Y-77123809D01*
X218109523Y-76980952D01*
X218061904Y-76790476D01*
X218014285Y-76695238D01*
X217919047Y-76600000D01*
X217776190Y-76552380D01*
X217680952Y-76552380D01*
X217538095Y-76600000D01*
X217490476Y-76647619D01*
X217061904Y-77552380D02*
X217061904Y-76552380D01*
X216490476Y-77552380D01*
X216490476Y-76552380D01*
X216109523Y-76552380D02*
X215490476Y-76552380D01*
X215823809Y-76933333D01*
X215680952Y-76933333D01*
X215585714Y-76980952D01*
X215538095Y-77028571D01*
X215490476Y-77123809D01*
X215490476Y-77361904D01*
X215538095Y-77457142D01*
X215585714Y-77504761D01*
X215680952Y-77552380D01*
X215966666Y-77552380D01*
X216061904Y-77504761D01*
X216109523Y-77457142D01*
X214033333Y-76957142D02*
X214080952Y-77004761D01*
X214223809Y-77052380D01*
X214319047Y-77052380D01*
X214461904Y-77004761D01*
X214557142Y-76909523D01*
X214604761Y-76814285D01*
X214652380Y-76623809D01*
X214652380Y-76480952D01*
X214604761Y-76290476D01*
X214557142Y-76195238D01*
X214461904Y-76100000D01*
X214319047Y-76052380D01*
X214223809Y-76052380D01*
X214080952Y-76100000D01*
X214033333Y-76147619D01*
X213604761Y-76528571D02*
X213271428Y-76528571D01*
X213128571Y-77052380D02*
X213604761Y-77052380D01*
X213604761Y-76052380D01*
X213128571Y-76052380D01*
X212223809Y-77052380D02*
X212700000Y-77052380D01*
X212700000Y-76052380D01*
X211414285Y-77052380D02*
X211890476Y-77052380D01*
X211890476Y-76052380D01*
X211319047Y-77147619D02*
X210557142Y-77147619D01*
X210319047Y-77052380D02*
X210319047Y-76052380D01*
X209938095Y-76052380D01*
X209842857Y-76100000D01*
X209795238Y-76147619D01*
X209747619Y-76242857D01*
X209747619Y-76385714D01*
X209795238Y-76480952D01*
X209842857Y-76528571D01*
X209938095Y-76576190D01*
X210319047Y-76576190D01*
D11*
X209300000Y-89700000D02*
X203700000Y-89700000D01*
X203700000Y-89700000D02*
X203700000Y-95300000D01*
X203700000Y-95300000D02*
X209300000Y-95300000D01*
X209300000Y-95300000D02*
X209300000Y-89700000D01*
X215300000Y-77700000D02*
X209700000Y-77700000D01*
X209700000Y-77700000D02*
X209700000Y-83300000D01*
X209700000Y-83300000D02*
X215300000Y-83300000D01*
X215300000Y-83300000D02*
X215300000Y-77700000D01*
%LPC*%
D12*
X105500000Y-76000000D03*
X202000000Y-103500000D03*
D13*
X153200000Y-70000000D03*
X153700000Y-74000000D03*
X153200000Y-78000000D03*
D14*
X146950000Y-80250000D03*
D15*
X87000000Y-64500000D03*
X87000000Y-62500000D03*
X87000000Y-60500000D03*
X89500000Y-64500000D03*
X89500000Y-62500000D03*
X89500000Y-60500000D03*
D16*
X88250000Y-67750000D03*
D17*
X212000000Y-69500000D03*
D18*
X87500000Y-83500000D03*
X87500000Y-86000000D03*
X87500000Y-88500000D03*
X93000000Y-83500000D03*
X93000000Y-86000000D03*
X93000000Y-88500000D03*
D19*
X85750000Y-82250000D03*
D20*
X94750000Y-89750000D03*
D17*
X137000000Y-103500000D03*
D18*
X167000000Y-72000000D03*
X167000000Y-74000000D03*
X167000000Y-76000000D03*
X164500000Y-72000000D03*
X164500000Y-74000000D03*
X164500000Y-76000000D03*
D16*
X165750000Y-68750000D03*
X165750000Y-79250000D03*
D21*
X65500000Y-96000000D03*
X65500000Y-98500000D03*
X65500000Y-101000000D03*
X68000000Y-96000000D03*
X68000000Y-98500000D03*
X68000000Y-101000000D03*
D22*
X60500000Y-93500000D03*
X60500000Y-96000000D03*
X60500000Y-101000000D03*
X60500000Y-103500000D03*
D16*
X55500000Y-98500000D03*
D23*
X206500000Y-92500000D03*
X212500000Y-80500000D03*
M02*
