G04 #@! TF.GenerationSoftware,KiCad,Pcbnew,(6.0.10)*
G04 #@! TF.CreationDate,2024-06-10T21:48:35+09:00*
G04 #@! TF.ProjectId,icb33h_pwb_rev2,69636233-3368-45f7-9077-625f72657632,rev?*
G04 #@! TF.SameCoordinates,Original*
G04 #@! TF.FileFunction,Legend,Top*
G04 #@! TF.FilePolarity,Positive*
%FSLAX46Y46*%
G04 Gerber Fmt 4.6, Leading zero omitted, Abs format (unit mm)*
G04 Created by KiCad (PCBNEW (6.0.10)) date 2024-06-10 21:48:35*
%MOMM*%
%LPD*%
G01*
G04 APERTURE LIST*
G04 Aperture macros list*
%AMRoundRect*
0 Rectangle with rounded corners*
0 $1 Rounding radius*
0 $2 $3 $4 $5 $6 $7 $8 $9 X,Y pos of 4 corners*
0 Add a 4 corners polygon primitive as box body*
4,1,4,$2,$3,$4,$5,$6,$7,$8,$9,$2,$3,0*
0 Add four circle primitives for the rounded corners*
1,1,$1+$1,$2,$3*
1,1,$1+$1,$4,$5*
1,1,$1+$1,$6,$7*
1,1,$1+$1,$8,$9*
0 Add four rect primitives between the rounded corners*
20,1,$1+$1,$2,$3,$4,$5,0*
20,1,$1+$1,$4,$5,$6,$7,0*
20,1,$1+$1,$6,$7,$8,$9,0*
20,1,$1+$1,$8,$9,$2,$3,0*%
%AMFreePoly0*
4,1,19,0.058779,1.180902,0.070711,1.170711,1.170711,0.070711,1.198769,0.015643,1.200000,0.000000,1.200000,-1.100000,1.180902,-1.158779,1.130902,-1.195106,1.100000,-1.200000,-1.100000,-1.200000,-1.158779,-1.180902,-1.195106,-1.130902,-1.200000,-1.100000,-1.200000,1.100000,-1.180902,1.158779,-1.130902,1.195106,-1.100000,1.200000,0.000000,1.200000,0.058779,1.180902,0.058779,1.180902,
$1*%
%AMFreePoly1*
4,1,19,1.158779,1.180902,1.195106,1.130902,1.200000,1.100000,1.200000,-1.100000,1.180902,-1.158779,1.130902,-1.195106,1.100000,-1.200000,0.000000,-1.200000,-0.058779,-1.180902,-0.070711,-1.170711,-1.170711,-0.070711,-1.198769,-0.015643,-1.200000,0.000000,-1.200000,1.100000,-1.180902,1.158779,-1.130902,1.195106,-1.100000,1.200000,1.100000,1.200000,1.158779,1.180902,1.158779,1.180902,
$1*%
G04 Aperture macros list end*
%ADD10C,0.150000*%
%ADD11C,0.200000*%
%ADD12C,4.500000*%
%ADD13C,2.800000*%
%ADD14RoundRect,0.900000X-1.400000X0.800000X-1.400000X-0.800000X1.400000X-0.800000X1.400000X0.800000X0*%
%ADD15RoundRect,0.450000X0.550000X-0.350000X0.550000X0.350000X-0.550000X0.350000X-0.550000X-0.350000X0*%
%ADD16C,2.600000*%
%ADD17C,3.500000*%
%ADD18RoundRect,0.450000X-0.550000X0.350000X-0.550000X-0.350000X0.550000X-0.350000X0.550000X0.350000X0*%
%ADD19FreePoly0,270.000000*%
%ADD20FreePoly1,270.000000*%
%ADD21C,1.800000*%
%ADD22RoundRect,0.550000X-0.750000X0.450000X-0.750000X-0.450000X0.750000X-0.450000X0.750000X0.450000X0*%
G04 APERTURE END LIST*
D10*
X138652380Y-75409523D02*
X139652380Y-75076190D01*
X138652380Y-74742857D01*
X139652380Y-73838095D02*
X139176190Y-74171428D01*
X139652380Y-74409523D02*
X138652380Y-74409523D01*
X138652380Y-74028571D01*
X138700000Y-73933333D01*
X138747619Y-73885714D01*
X138842857Y-73838095D01*
X138985714Y-73838095D01*
X139080952Y-73885714D01*
X139128571Y-73933333D01*
X139176190Y-74028571D01*
X139176190Y-74409523D01*
X139652380Y-72885714D02*
X139652380Y-73457142D01*
X139652380Y-73171428D02*
X138652380Y-73171428D01*
X138795238Y-73266666D01*
X138890476Y-73361904D01*
X138938095Y-73457142D01*
X92404761Y-67114285D02*
X92452380Y-67019047D01*
X92452380Y-66828571D01*
X92404761Y-66733333D01*
X92309523Y-66685714D01*
X92261904Y-66685714D01*
X92166666Y-66733333D01*
X92119047Y-66828571D01*
X92119047Y-66971428D01*
X92071428Y-67066666D01*
X91976190Y-67114285D01*
X91928571Y-67114285D01*
X91833333Y-67066666D01*
X91785714Y-66971428D01*
X91785714Y-66828571D01*
X91833333Y-66733333D01*
X91785714Y-66352380D02*
X92452380Y-66161904D01*
X91976190Y-65971428D01*
X92452380Y-65780952D01*
X91785714Y-65590476D01*
X92452380Y-64685714D02*
X92452380Y-65257142D01*
X92452380Y-64971428D02*
X91452380Y-64971428D01*
X91595238Y-65066666D01*
X91690476Y-65161904D01*
X91738095Y-65257142D01*
X86016666Y-79004761D02*
X86159523Y-79052380D01*
X86397619Y-79052380D01*
X86492857Y-79004761D01*
X86540476Y-78957142D01*
X86588095Y-78861904D01*
X86588095Y-78766666D01*
X86540476Y-78671428D01*
X86492857Y-78623809D01*
X86397619Y-78576190D01*
X86207142Y-78528571D01*
X86111904Y-78480952D01*
X86064285Y-78433333D01*
X86016666Y-78338095D01*
X86016666Y-78242857D01*
X86064285Y-78147619D01*
X86111904Y-78100000D01*
X86207142Y-78052380D01*
X86445238Y-78052380D01*
X86588095Y-78100000D01*
X86921428Y-78052380D02*
X87159523Y-79052380D01*
X87350000Y-78338095D01*
X87540476Y-79052380D01*
X87778571Y-78052380D01*
X88111904Y-78147619D02*
X88159523Y-78100000D01*
X88254761Y-78052380D01*
X88492857Y-78052380D01*
X88588095Y-78100000D01*
X88635714Y-78147619D01*
X88683333Y-78242857D01*
X88683333Y-78338095D01*
X88635714Y-78480952D01*
X88064285Y-79052380D01*
X88683333Y-79052380D01*
X169085714Y-77204761D02*
X169180952Y-77252380D01*
X169371428Y-77252380D01*
X169466666Y-77204761D01*
X169514285Y-77109523D01*
X169514285Y-77061904D01*
X169466666Y-76966666D01*
X169371428Y-76919047D01*
X169228571Y-76919047D01*
X169133333Y-76871428D01*
X169085714Y-76776190D01*
X169085714Y-76728571D01*
X169133333Y-76633333D01*
X169228571Y-76585714D01*
X169371428Y-76585714D01*
X169466666Y-76633333D01*
X169847619Y-76585714D02*
X170038095Y-77252380D01*
X170228571Y-76776190D01*
X170419047Y-77252380D01*
X170609523Y-76585714D01*
X170895238Y-76252380D02*
X171514285Y-76252380D01*
X171180952Y-76633333D01*
X171323809Y-76633333D01*
X171419047Y-76680952D01*
X171466666Y-76728571D01*
X171514285Y-76823809D01*
X171514285Y-77061904D01*
X171466666Y-77157142D01*
X171419047Y-77204761D01*
X171323809Y-77252380D01*
X171038095Y-77252380D01*
X170942857Y-77204761D01*
X170895238Y-77157142D01*
X55809523Y-91857142D02*
X55761904Y-91904761D01*
X55619047Y-91952380D01*
X55523809Y-91952380D01*
X55380952Y-91904761D01*
X55285714Y-91809523D01*
X55238095Y-91714285D01*
X55190476Y-91523809D01*
X55190476Y-91380952D01*
X55238095Y-91190476D01*
X55285714Y-91095238D01*
X55380952Y-91000000D01*
X55523809Y-90952380D01*
X55619047Y-90952380D01*
X55761904Y-91000000D01*
X55809523Y-91047619D01*
X56238095Y-91952380D02*
X56238095Y-90952380D01*
X56809523Y-91952380D01*
X56809523Y-90952380D01*
X57190476Y-90952380D02*
X57857142Y-90952380D01*
X57428571Y-91952380D01*
D11*
X143471109Y-68742368D02*
G75*
G03*
X144300000Y-79799999I3457011J-5300742D01*
G01*
X149700000Y-79700000D02*
G75*
G03*
X150700000Y-79000000I-5433900J8827000D01*
G01*
X152997207Y-72577319D02*
G75*
G03*
X152700000Y-71500000I-13622507J-3178481D01*
G01*
X152699999Y-76500000D02*
G75*
G03*
X153000000Y-75400000I-9610999J3212100D01*
G01*
X86800000Y-67800000D02*
X85500000Y-67800000D01*
X85500000Y-59700000D02*
X85500000Y-67800000D01*
X89700000Y-67800000D02*
X91000000Y-67800000D01*
X91000000Y-60800000D02*
X91000000Y-67800000D01*
X91000000Y-64000000D02*
X95000000Y-64000000D01*
X95000000Y-64000000D02*
X95000000Y-61000000D01*
X95000000Y-61000000D02*
X91000000Y-61000000D01*
X91000000Y-61000000D02*
X91000000Y-64000000D01*
X94753609Y-81750000D02*
X94753609Y-88200000D01*
X85700000Y-84100000D02*
X85700000Y-89700000D01*
X85700000Y-89750000D02*
X93204620Y-89750000D01*
X87300000Y-81750000D02*
X94753609Y-81750000D01*
X87950000Y-89750000D02*
X92450000Y-89750000D01*
X92450000Y-89750000D02*
X92450000Y-100500000D01*
X92450000Y-100500000D02*
X87950000Y-100500000D01*
X87950000Y-100500000D02*
X87950000Y-89750000D01*
X168503094Y-68755729D02*
X168499237Y-79259741D01*
X164403591Y-79244271D02*
X163003591Y-79244271D01*
X168499237Y-79259741D02*
X167168831Y-79259741D01*
X167103094Y-68755729D02*
X168503094Y-68755729D01*
X163003591Y-79244271D02*
X163007449Y-68755729D01*
X163007449Y-68755729D02*
X164353324Y-68755729D01*
X163000000Y-72500000D02*
X159000000Y-72500000D01*
X159000000Y-72500000D02*
X159000000Y-75500000D01*
X159000000Y-75500000D02*
X163000000Y-75500000D01*
X163000000Y-75500000D02*
X163000000Y-72500000D01*
X52500000Y-92500000D02*
X69500000Y-92500000D01*
X69500000Y-92500000D02*
X69500000Y-104500000D01*
X69500000Y-104500000D02*
X52500000Y-104500000D01*
X52500000Y-104500000D02*
X52500000Y-92500000D01*
%LPC*%
D12*
X105500000Y-76000000D03*
X202000000Y-103500000D03*
D13*
X153200000Y-70000000D03*
X153700000Y-74000000D03*
X153200000Y-78000000D03*
D14*
X146950000Y-80250000D03*
D15*
X87000000Y-64500000D03*
X87000000Y-62500000D03*
X87000000Y-60500000D03*
X89500000Y-64500000D03*
X89500000Y-62500000D03*
X89500000Y-60500000D03*
D16*
X88250000Y-67750000D03*
D17*
X212000000Y-69500000D03*
D18*
X87500000Y-83500000D03*
X87500000Y-86000000D03*
X87500000Y-88500000D03*
X93000000Y-83500000D03*
X93000000Y-86000000D03*
X93000000Y-88500000D03*
D19*
X85750000Y-82250000D03*
D20*
X94750000Y-89750000D03*
D17*
X137000000Y-103500000D03*
D18*
X167000000Y-72000000D03*
X167000000Y-74000000D03*
X167000000Y-76000000D03*
X164500000Y-72000000D03*
X164500000Y-74000000D03*
X164500000Y-76000000D03*
D16*
X165750000Y-68750000D03*
X165750000Y-79250000D03*
D21*
X65500000Y-96000000D03*
X65500000Y-98500000D03*
X65500000Y-101000000D03*
X68000000Y-96000000D03*
X68000000Y-98500000D03*
X68000000Y-101000000D03*
D22*
X60500000Y-93500000D03*
X60500000Y-96000000D03*
X60500000Y-101000000D03*
X60500000Y-103500000D03*
D16*
X55500000Y-98500000D03*
M02*
