G04 #@! TF.GenerationSoftware,KiCad,Pcbnew,(6.0.10)*
G04 #@! TF.CreationDate,2024-06-10T21:48:35+09:00*
G04 #@! TF.ProjectId,icb33h_pwb_rev2,69636233-3368-45f7-9077-625f72657632,rev?*
G04 #@! TF.SameCoordinates,Original*
G04 #@! TF.FileFunction,Copper,L1,Top*
G04 #@! TF.FilePolarity,Positive*
%FSLAX46Y46*%
G04 Gerber Fmt 4.6, Leading zero omitted, Abs format (unit mm)*
G04 Created by KiCad (PCBNEW (6.0.10)) date 2024-06-10 21:48:35*
%MOMM*%
%LPD*%
G01*
G04 APERTURE LIST*
G04 Aperture macros list*
%AMRoundRect*
0 Rectangle with rounded corners*
0 $1 Rounding radius*
0 $2 $3 $4 $5 $6 $7 $8 $9 X,Y pos of 4 corners*
0 Add a 4 corners polygon primitive as box body*
4,1,4,$2,$3,$4,$5,$6,$7,$8,$9,$2,$3,0*
0 Add four circle primitives for the rounded corners*
1,1,$1+$1,$2,$3*
1,1,$1+$1,$4,$5*
1,1,$1+$1,$6,$7*
1,1,$1+$1,$8,$9*
0 Add four rect primitives between the rounded corners*
20,1,$1+$1,$2,$3,$4,$5,0*
20,1,$1+$1,$4,$5,$6,$7,0*
20,1,$1+$1,$6,$7,$8,$9,0*
20,1,$1+$1,$8,$9,$2,$3,0*%
%AMOutline5P*
0 Free polygon, 5 corners , with rotation*
0 The origin of the aperture is its center*
0 number of corners: always 5*
0 $1 to $10 corner X, Y*
0 $11 Rotation angle, in degrees counterclockwise*
0 create outline with 5 corners*
4,1,5,$1,$2,$3,$4,$5,$6,$7,$8,$9,$10,$1,$2,$11*%
%AMOutline6P*
0 Free polygon, 6 corners , with rotation*
0 The origin of the aperture is its center*
0 number of corners: always 6*
0 $1 to $12 corner X, Y*
0 $13 Rotation angle, in degrees counterclockwise*
0 create outline with 6 corners*
4,1,6,$1,$2,$3,$4,$5,$6,$7,$8,$9,$10,$11,$12,$1,$2,$13*%
%AMOutline7P*
0 Free polygon, 7 corners , with rotation*
0 The origin of the aperture is its center*
0 number of corners: always 7*
0 $1 to $14 corner X, Y*
0 $15 Rotation angle, in degrees counterclockwise*
0 create outline with 7 corners*
4,1,7,$1,$2,$3,$4,$5,$6,$7,$8,$9,$10,$11,$12,$13,$14,$1,$2,$15*%
%AMOutline8P*
0 Free polygon, 8 corners , with rotation*
0 The origin of the aperture is its center*
0 number of corners: always 8*
0 $1 to $16 corner X, Y*
0 $17 Rotation angle, in degrees counterclockwise*
0 create outline with 8 corners*
4,1,8,$1,$2,$3,$4,$5,$6,$7,$8,$9,$10,$11,$12,$13,$14,$15,$16,$1,$2,$17*%
G04 Aperture macros list end*
G04 #@! TA.AperFunction,ComponentPad*
%ADD10C,2.600000*%
G04 #@! TD*
G04 #@! TA.AperFunction,ComponentPad*
%ADD11RoundRect,0.800000X-1.400000X0.800000X-1.400000X-0.800000X1.400000X-0.800000X1.400000X0.800000X0*%
G04 #@! TD*
G04 #@! TA.AperFunction,ComponentPad*
%ADD12RoundRect,0.350000X0.550000X-0.350000X0.550000X0.350000X-0.550000X0.350000X-0.550000X-0.350000X0*%
G04 #@! TD*
G04 #@! TA.AperFunction,ComponentPad*
%ADD13C,2.400000*%
G04 #@! TD*
G04 #@! TA.AperFunction,ComponentPad*
%ADD14RoundRect,0.350000X-0.550000X0.350000X-0.550000X-0.350000X0.550000X-0.350000X0.550000X0.350000X0*%
G04 #@! TD*
G04 #@! TA.AperFunction,ComponentPad*
%ADD15Outline5P,-1.100000X1.100000X0.000000X1.100000X1.100000X0.000000X1.100000X-1.100000X-1.100000X-1.100000X270.000000*%
G04 #@! TD*
G04 #@! TA.AperFunction,ComponentPad*
%ADD16Outline5P,-1.100000X1.100000X1.100000X1.100000X1.100000X-1.100000X0.000000X-1.100000X-1.100000X0.000000X270.000000*%
G04 #@! TD*
G04 #@! TA.AperFunction,ComponentPad*
%ADD17C,1.600000*%
G04 #@! TD*
G04 #@! TA.AperFunction,ComponentPad*
%ADD18RoundRect,0.450000X-0.750000X0.450000X-0.750000X-0.450000X0.750000X-0.450000X0.750000X0.450000X0*%
G04 #@! TD*
G04 APERTURE END LIST*
D10*
X153200000Y-70000000D03*
X153700000Y-74000000D03*
X153200000Y-78000000D03*
D11*
X146950000Y-80250000D03*
D12*
X87000000Y-64500000D03*
X87000000Y-62500000D03*
X87000000Y-60500000D03*
X89500000Y-64500000D03*
X89500000Y-62500000D03*
X89500000Y-60500000D03*
D13*
X88250000Y-67750000D03*
D14*
X87500000Y-83500000D03*
X87500000Y-86000000D03*
X87500000Y-88500000D03*
X93000000Y-83500000D03*
X93000000Y-86000000D03*
X93000000Y-88500000D03*
D15*
X85750000Y-82250000D03*
D16*
X94750000Y-89750000D03*
D14*
X167000000Y-72000000D03*
X167000000Y-74000000D03*
X167000000Y-76000000D03*
X164500000Y-72000000D03*
X164500000Y-74000000D03*
X164500000Y-76000000D03*
D13*
X165750000Y-68750000D03*
X165750000Y-79250000D03*
D17*
X65500000Y-96000000D03*
X65500000Y-98500000D03*
X65500000Y-101000000D03*
X68000000Y-96000000D03*
X68000000Y-98500000D03*
X68000000Y-101000000D03*
D18*
X60500000Y-93500000D03*
X60500000Y-96000000D03*
X60500000Y-101000000D03*
X60500000Y-103500000D03*
D13*
X55500000Y-98500000D03*
G04 #@! TA.AperFunction,Conductor*
G36*
X55941621Y-57020502D02*
G01*
X55988114Y-57074158D01*
X55999500Y-57126500D01*
X55999500Y-60451259D01*
X55998000Y-60470643D01*
X55994391Y-60493823D01*
X55995555Y-60502726D01*
X55995555Y-60502730D01*
X55995753Y-60504246D01*
X55996495Y-60511588D01*
X56010979Y-60714089D01*
X56024798Y-60777612D01*
X56052177Y-60903472D01*
X56056603Y-60923820D01*
X56058170Y-60928022D01*
X56058172Y-60928028D01*
X56085369Y-61000945D01*
X56131611Y-61124923D01*
X56133765Y-61128867D01*
X56133766Y-61128870D01*
X56149530Y-61157740D01*
X56234475Y-61313304D01*
X56363101Y-61485129D01*
X56514871Y-61636899D01*
X56686696Y-61765525D01*
X56690651Y-61767684D01*
X56690650Y-61767684D01*
X56849810Y-61854592D01*
X56875077Y-61868389D01*
X56879289Y-61869960D01*
X57071972Y-61941828D01*
X57071978Y-61941830D01*
X57076180Y-61943397D01*
X57080566Y-61944351D01*
X57080569Y-61944352D01*
X57204038Y-61971211D01*
X57285911Y-61989021D01*
X57460498Y-62001508D01*
X57472410Y-62002933D01*
X57482844Y-62004689D01*
X57482855Y-62004690D01*
X57487646Y-62005496D01*
X57493864Y-62005572D01*
X57495141Y-62005588D01*
X57495146Y-62005588D01*
X57500000Y-62005647D01*
X57527051Y-62001773D01*
X57544913Y-62000500D01*
X58447424Y-62000500D01*
X58468329Y-62002246D01*
X58487646Y-62005496D01*
X58493864Y-62005572D01*
X58495141Y-62005588D01*
X58495146Y-62005588D01*
X58500000Y-62005647D01*
X58513924Y-62003653D01*
X58522777Y-62002704D01*
X58709601Y-61989342D01*
X58714089Y-61989021D01*
X58795962Y-61971211D01*
X58919431Y-61944352D01*
X58919434Y-61944351D01*
X58923820Y-61943397D01*
X58928022Y-61941830D01*
X58928028Y-61941828D01*
X59120711Y-61869960D01*
X59124923Y-61868389D01*
X59150191Y-61854592D01*
X59309350Y-61767684D01*
X59309349Y-61767684D01*
X59313304Y-61765525D01*
X59485129Y-61636899D01*
X59636899Y-61485129D01*
X59765525Y-61313304D01*
X59850470Y-61157740D01*
X59866234Y-61128870D01*
X59866235Y-61128867D01*
X59868389Y-61124923D01*
X59914631Y-61000945D01*
X59941828Y-60928028D01*
X59941830Y-60928022D01*
X59943397Y-60923820D01*
X59947824Y-60903472D01*
X59975202Y-60777612D01*
X59989021Y-60714089D01*
X60001508Y-60539502D01*
X60002933Y-60527590D01*
X60004689Y-60517156D01*
X60004690Y-60517145D01*
X60005496Y-60512354D01*
X60005647Y-60500000D01*
X60001773Y-60472949D01*
X60000500Y-60455087D01*
X60000500Y-57126500D01*
X60020502Y-57058379D01*
X60074158Y-57011886D01*
X60126500Y-57000500D01*
X86873500Y-57000500D01*
X86941621Y-57020502D01*
X86988114Y-57074158D01*
X86999500Y-57126500D01*
X86999500Y-57451259D01*
X86998000Y-57470643D01*
X86994391Y-57493823D01*
X86996299Y-57508410D01*
X86996880Y-57513741D01*
X87010936Y-57674399D01*
X87056246Y-57843498D01*
X87058568Y-57848479D01*
X87058569Y-57848480D01*
X87127906Y-57997174D01*
X87127909Y-57997179D01*
X87130232Y-58002161D01*
X87230645Y-58145566D01*
X87354434Y-58269355D01*
X87358942Y-58272512D01*
X87358945Y-58272514D01*
X87493330Y-58366611D01*
X87497839Y-58369768D01*
X87502821Y-58372091D01*
X87502826Y-58372094D01*
X87651520Y-58441431D01*
X87656502Y-58443754D01*
X87661810Y-58445176D01*
X87661812Y-58445177D01*
X87713877Y-58459128D01*
X87825601Y-58489064D01*
X87902740Y-58495813D01*
X87954749Y-58500363D01*
X87964659Y-58501628D01*
X87987646Y-58505496D01*
X87992511Y-58505555D01*
X87992517Y-58505556D01*
X87995141Y-58505588D01*
X87995146Y-58505588D01*
X88000000Y-58505647D01*
X88027051Y-58501773D01*
X88044913Y-58500500D01*
X88447424Y-58500500D01*
X88468329Y-58502246D01*
X88487646Y-58505496D01*
X88493748Y-58505571D01*
X88495135Y-58505588D01*
X88495141Y-58505588D01*
X88500000Y-58505647D01*
X88520364Y-58502731D01*
X88527205Y-58501942D01*
X88674399Y-58489064D01*
X88778651Y-58461130D01*
X88838188Y-58445177D01*
X88838190Y-58445176D01*
X88843498Y-58443754D01*
X88848480Y-58441431D01*
X88997174Y-58372094D01*
X88997179Y-58372091D01*
X89002161Y-58369768D01*
X89006670Y-58366611D01*
X89141055Y-58272514D01*
X89141058Y-58272512D01*
X89145566Y-58269355D01*
X89269355Y-58145566D01*
X89369768Y-58002161D01*
X89372091Y-57997179D01*
X89372094Y-57997174D01*
X89441431Y-57848480D01*
X89441432Y-57848479D01*
X89443754Y-57843498D01*
X89489064Y-57674399D01*
X89500363Y-57545251D01*
X89501628Y-57535341D01*
X89505496Y-57512354D01*
X89505647Y-57500000D01*
X89501773Y-57472949D01*
X89500500Y-57455087D01*
X89500500Y-57126500D01*
X89520502Y-57058379D01*
X89574158Y-57011886D01*
X89626500Y-57000500D01*
X90373500Y-57000500D01*
X90441621Y-57020502D01*
X90488114Y-57074158D01*
X90499500Y-57126500D01*
X90499500Y-59224252D01*
X90479498Y-59292373D01*
X90425842Y-59338866D01*
X90355568Y-59348970D01*
X90343018Y-59346509D01*
X90171503Y-59303745D01*
X90171499Y-59303744D01*
X90166107Y-59302400D01*
X90149294Y-59301254D01*
X90125714Y-59299646D01*
X90125701Y-59299646D01*
X90123566Y-59299500D01*
X88876434Y-59299500D01*
X88874299Y-59299646D01*
X88874286Y-59299646D01*
X88850706Y-59301254D01*
X88833893Y-59302400D01*
X88828501Y-59303744D01*
X88828497Y-59303745D01*
X88687637Y-59338866D01*
X88654592Y-59347105D01*
X88648485Y-59350136D01*
X88648481Y-59350138D01*
X88571833Y-59388187D01*
X88489074Y-59429269D01*
X88345060Y-59545060D01*
X88340785Y-59550377D01*
X88339095Y-59552067D01*
X88276783Y-59586093D01*
X88205968Y-59581028D01*
X88160905Y-59552067D01*
X88159215Y-59550377D01*
X88154940Y-59545060D01*
X88010926Y-59429269D01*
X87928167Y-59388187D01*
X87851519Y-59350138D01*
X87851515Y-59350136D01*
X87845408Y-59347105D01*
X87812363Y-59338866D01*
X87671503Y-59303745D01*
X87671499Y-59303744D01*
X87666107Y-59302400D01*
X87649294Y-59301254D01*
X87625714Y-59299646D01*
X87625701Y-59299646D01*
X87623566Y-59299500D01*
X86376434Y-59299500D01*
X86374299Y-59299646D01*
X86374286Y-59299646D01*
X86350706Y-59301254D01*
X86333893Y-59302400D01*
X86328501Y-59303744D01*
X86328497Y-59303745D01*
X86187637Y-59338866D01*
X86154592Y-59347105D01*
X86148485Y-59350136D01*
X86148481Y-59350138D01*
X86071833Y-59388187D01*
X85989074Y-59429269D01*
X85845060Y-59545060D01*
X85729269Y-59689074D01*
X85688187Y-59771833D01*
X85650138Y-59848481D01*
X85650136Y-59848485D01*
X85647105Y-59854592D01*
X85645454Y-59861214D01*
X85608713Y-60008574D01*
X85602400Y-60033893D01*
X85602022Y-60039441D01*
X85599921Y-60070265D01*
X85599500Y-60076434D01*
X85599500Y-60923566D01*
X85599646Y-60925701D01*
X85599646Y-60925714D01*
X85599804Y-60928028D01*
X85602400Y-60966107D01*
X85603744Y-60971499D01*
X85603745Y-60971503D01*
X85614951Y-61016447D01*
X85647105Y-61145408D01*
X85650136Y-61151515D01*
X85650138Y-61151519D01*
X85660444Y-61172280D01*
X85729269Y-61310926D01*
X85733546Y-61316245D01*
X85817810Y-61421048D01*
X85844907Y-61486670D01*
X85832224Y-61556524D01*
X85817810Y-61578952D01*
X85729269Y-61689074D01*
X85692659Y-61762824D01*
X85650138Y-61848481D01*
X85650136Y-61848485D01*
X85647105Y-61854592D01*
X85645454Y-61861214D01*
X85605739Y-62020502D01*
X85602400Y-62033893D01*
X85599500Y-62076434D01*
X85599500Y-62923566D01*
X85602400Y-62966107D01*
X85647105Y-63145408D01*
X85650136Y-63151515D01*
X85650138Y-63151519D01*
X85688187Y-63228167D01*
X85729269Y-63310926D01*
X85733546Y-63316245D01*
X85817810Y-63421048D01*
X85844907Y-63486670D01*
X85832224Y-63556524D01*
X85817810Y-63578952D01*
X85729269Y-63689074D01*
X85688187Y-63771833D01*
X85650138Y-63848481D01*
X85650136Y-63848485D01*
X85647105Y-63854592D01*
X85602400Y-64033893D01*
X85599500Y-64076434D01*
X85599500Y-64923566D01*
X85602400Y-64966107D01*
X85647105Y-65145408D01*
X85650136Y-65151515D01*
X85650138Y-65151519D01*
X85688187Y-65228167D01*
X85729269Y-65310926D01*
X85845060Y-65454940D01*
X85989074Y-65570731D01*
X86041042Y-65596528D01*
X86148481Y-65649862D01*
X86148485Y-65649864D01*
X86154592Y-65652895D01*
X86161214Y-65654546D01*
X86328497Y-65696255D01*
X86328501Y-65696256D01*
X86333893Y-65697600D01*
X86350706Y-65698746D01*
X86374286Y-65700354D01*
X86374299Y-65700354D01*
X86376434Y-65700500D01*
X87623566Y-65700500D01*
X87625701Y-65700354D01*
X87625714Y-65700354D01*
X87649294Y-65698746D01*
X87666107Y-65697600D01*
X87671499Y-65696256D01*
X87671503Y-65696255D01*
X87838786Y-65654546D01*
X87845408Y-65652895D01*
X87851515Y-65649864D01*
X87851519Y-65649862D01*
X87958958Y-65596528D01*
X88010926Y-65570731D01*
X88154940Y-65454940D01*
X88159215Y-65449623D01*
X88160905Y-65447933D01*
X88223217Y-65413907D01*
X88294032Y-65418972D01*
X88339095Y-65447933D01*
X88340785Y-65449623D01*
X88345060Y-65454940D01*
X88489074Y-65570731D01*
X88541042Y-65596528D01*
X88648481Y-65649862D01*
X88648485Y-65649864D01*
X88654592Y-65652895D01*
X88661214Y-65654546D01*
X88828497Y-65696255D01*
X88828501Y-65696256D01*
X88833893Y-65697600D01*
X88850706Y-65698746D01*
X88874286Y-65700354D01*
X88874299Y-65700354D01*
X88876434Y-65700500D01*
X90123566Y-65700500D01*
X90125701Y-65700354D01*
X90125714Y-65700354D01*
X90149294Y-65698746D01*
X90166107Y-65697600D01*
X90171499Y-65696256D01*
X90171503Y-65696255D01*
X90338786Y-65654546D01*
X90345408Y-65652895D01*
X90351515Y-65649864D01*
X90351519Y-65649862D01*
X90458958Y-65596528D01*
X90510926Y-65570731D01*
X90654940Y-65454940D01*
X90770731Y-65310926D01*
X90811813Y-65228167D01*
X90849862Y-65151519D01*
X90849864Y-65151515D01*
X90852895Y-65145408D01*
X90897600Y-64966107D01*
X90900500Y-64923566D01*
X90900500Y-64076434D01*
X90897600Y-64033893D01*
X90852895Y-63854592D01*
X90849864Y-63848485D01*
X90849862Y-63848481D01*
X90811813Y-63771833D01*
X90770731Y-63689074D01*
X90682190Y-63578952D01*
X90655093Y-63513330D01*
X90667776Y-63443476D01*
X90682190Y-63421048D01*
X90766454Y-63316245D01*
X90770731Y-63310926D01*
X90811813Y-63228167D01*
X90849862Y-63151519D01*
X90849864Y-63151515D01*
X90852895Y-63145408D01*
X90897600Y-62966107D01*
X90900500Y-62923566D01*
X90900500Y-62076434D01*
X90897600Y-62033893D01*
X90894262Y-62020502D01*
X90854546Y-61861214D01*
X90852895Y-61854592D01*
X90849864Y-61848485D01*
X90849862Y-61848481D01*
X90807341Y-61762824D01*
X90770731Y-61689074D01*
X90682190Y-61578952D01*
X90655093Y-61513330D01*
X90667776Y-61443476D01*
X90682190Y-61421048D01*
X90766454Y-61316245D01*
X90770731Y-61310926D01*
X90839556Y-61172280D01*
X90849862Y-61151519D01*
X90849864Y-61151515D01*
X90852895Y-61145408D01*
X90857019Y-61128870D01*
X90865209Y-61096019D01*
X90901096Y-61034760D01*
X90964405Y-61002628D01*
X90987466Y-61000500D01*
X90991426Y-61000500D01*
X90992197Y-61000502D01*
X91068624Y-61000969D01*
X91069953Y-61000589D01*
X91071263Y-61000500D01*
X93991426Y-61000500D01*
X93992197Y-61000502D01*
X94068624Y-61000969D01*
X94096482Y-60993007D01*
X94113241Y-60989429D01*
X94122644Y-60988083D01*
X94133029Y-60986596D01*
X94133030Y-60986596D01*
X94141918Y-60985323D01*
X94150092Y-60981607D01*
X94150094Y-60981606D01*
X94164788Y-60974925D01*
X94182312Y-60968477D01*
X94197845Y-60964038D01*
X94197849Y-60964036D01*
X94206471Y-60961572D01*
X94230975Y-60946111D01*
X94246058Y-60937974D01*
X94264252Y-60929702D01*
X94264255Y-60929700D01*
X94272428Y-60925984D01*
X94291464Y-60909581D01*
X94306477Y-60898473D01*
X94327720Y-60885070D01*
X94333663Y-60878341D01*
X94333665Y-60878339D01*
X94346897Y-60863356D01*
X94359091Y-60851310D01*
X94374236Y-60838260D01*
X94381037Y-60832400D01*
X94394704Y-60811314D01*
X94405991Y-60796444D01*
X94416683Y-60784338D01*
X94416683Y-60784337D01*
X94422623Y-60777612D01*
X94434934Y-60751391D01*
X94443254Y-60736413D01*
X94454131Y-60719631D01*
X94454132Y-60719628D01*
X94459015Y-60712095D01*
X94466215Y-60688019D01*
X94472871Y-60670589D01*
X94483553Y-60647837D01*
X94488010Y-60619213D01*
X94491793Y-60602495D01*
X94497522Y-60583340D01*
X94497523Y-60583332D01*
X94500093Y-60574739D01*
X94500301Y-60540818D01*
X94500332Y-60540075D01*
X94500500Y-60538991D01*
X94500500Y-60508574D01*
X94500502Y-60507804D01*
X94500715Y-60472949D01*
X94500969Y-60431376D01*
X94500589Y-60430047D01*
X94500500Y-60428737D01*
X94500500Y-57126500D01*
X94520502Y-57058379D01*
X94574158Y-57011886D01*
X94626500Y-57000500D01*
X113873500Y-57000500D01*
X113941621Y-57020502D01*
X113988114Y-57074158D01*
X113999500Y-57126500D01*
X113999500Y-60451259D01*
X113998000Y-60470643D01*
X113994391Y-60493823D01*
X113995555Y-60502726D01*
X113995555Y-60502730D01*
X113995753Y-60504246D01*
X113996495Y-60511588D01*
X114010979Y-60714089D01*
X114024798Y-60777612D01*
X114052177Y-60903472D01*
X114056603Y-60923820D01*
X114058170Y-60928022D01*
X114058172Y-60928028D01*
X114085369Y-61000945D01*
X114131611Y-61124923D01*
X114133765Y-61128867D01*
X114133766Y-61128870D01*
X114149530Y-61157740D01*
X114234475Y-61313304D01*
X114363101Y-61485129D01*
X114514871Y-61636899D01*
X114686696Y-61765525D01*
X114690651Y-61767684D01*
X114690650Y-61767684D01*
X114849810Y-61854592D01*
X114875077Y-61868389D01*
X114879289Y-61869960D01*
X115071972Y-61941828D01*
X115071978Y-61941830D01*
X115076180Y-61943397D01*
X115080566Y-61944351D01*
X115080569Y-61944352D01*
X115204038Y-61971211D01*
X115285911Y-61989021D01*
X115460498Y-62001508D01*
X115472410Y-62002933D01*
X115482844Y-62004689D01*
X115482855Y-62004690D01*
X115487646Y-62005496D01*
X115493864Y-62005572D01*
X115495141Y-62005588D01*
X115495146Y-62005588D01*
X115500000Y-62005647D01*
X115527051Y-62001773D01*
X115544913Y-62000500D01*
X118131366Y-62000500D01*
X118199487Y-62020502D01*
X118241510Y-62065309D01*
X120527536Y-66180157D01*
X120532410Y-66189900D01*
X120535961Y-66197840D01*
X120538428Y-66206471D01*
X120543217Y-66214061D01*
X120543220Y-66214068D01*
X120567742Y-66252933D01*
X120571322Y-66258973D01*
X120579938Y-66274481D01*
X120582646Y-66278048D01*
X120582649Y-66278053D01*
X120584947Y-66281081D01*
X120591143Y-66290022D01*
X120610137Y-66320124D01*
X120614930Y-66327720D01*
X120621660Y-66333663D01*
X120621662Y-66333666D01*
X120622015Y-66333978D01*
X120638960Y-66352227D01*
X120644673Y-66359752D01*
X120651892Y-66365093D01*
X120651893Y-66365094D01*
X120680510Y-66386266D01*
X120688974Y-66393113D01*
X120722388Y-66422623D01*
X120730759Y-66426553D01*
X120730941Y-66426639D01*
X120752324Y-66439397D01*
X120759926Y-66445021D01*
X120768352Y-66448120D01*
X120768355Y-66448122D01*
X120801765Y-66460412D01*
X120811814Y-66464610D01*
X120844032Y-66479736D01*
X120844035Y-66479737D01*
X120852163Y-66483553D01*
X120861032Y-66484934D01*
X120861039Y-66484936D01*
X120861504Y-66485008D01*
X120885612Y-66491253D01*
X120886053Y-66491415D01*
X120894478Y-66494514D01*
X120903429Y-66495124D01*
X120903431Y-66495124D01*
X120938957Y-66497543D01*
X120949771Y-66498750D01*
X120961009Y-66500500D01*
X120978097Y-66500500D01*
X120986657Y-66500791D01*
X121028554Y-66503644D01*
X121037513Y-66504254D01*
X121046285Y-66502325D01*
X121055230Y-66501659D01*
X121055249Y-66501915D01*
X121068272Y-66500500D01*
X144873500Y-66500500D01*
X144941621Y-66520502D01*
X144988114Y-66574158D01*
X144999500Y-66626500D01*
X144999500Y-67951259D01*
X144998000Y-67970643D01*
X144994391Y-67993823D01*
X144995555Y-68002726D01*
X144995555Y-68002730D01*
X144995753Y-68004246D01*
X144996495Y-68011588D01*
X145010979Y-68214089D01*
X145019102Y-68251428D01*
X145052160Y-68403394D01*
X145056603Y-68423820D01*
X145058170Y-68428022D01*
X145058172Y-68428028D01*
X145117288Y-68586523D01*
X145131611Y-68624923D01*
X145133765Y-68628867D01*
X145133766Y-68628870D01*
X145178085Y-68710033D01*
X145234475Y-68813304D01*
X145363101Y-68985129D01*
X145514871Y-69136899D01*
X145686696Y-69265525D01*
X145690651Y-69267684D01*
X145690650Y-69267684D01*
X145865860Y-69363356D01*
X145875077Y-69368389D01*
X145879289Y-69369960D01*
X146071972Y-69441828D01*
X146071978Y-69441830D01*
X146076180Y-69443397D01*
X146080566Y-69444351D01*
X146080569Y-69444352D01*
X146188152Y-69467755D01*
X146285911Y-69489021D01*
X146290399Y-69489342D01*
X146296616Y-69489787D01*
X146460498Y-69501508D01*
X146472410Y-69502933D01*
X146482844Y-69504689D01*
X146482855Y-69504690D01*
X146487646Y-69505496D01*
X146493864Y-69505572D01*
X146495141Y-69505588D01*
X146495146Y-69505588D01*
X146500000Y-69505647D01*
X146527051Y-69501773D01*
X146544913Y-69500500D01*
X147580092Y-69500500D01*
X147587832Y-69500738D01*
X147640800Y-69503998D01*
X147645636Y-69503547D01*
X147645639Y-69503547D01*
X147648254Y-69503303D01*
X147648255Y-69503303D01*
X147653101Y-69502851D01*
X147657825Y-69501658D01*
X147657829Y-69501657D01*
X147664027Y-69500092D01*
X147672513Y-69498257D01*
X147866051Y-69463341D01*
X147866057Y-69463339D01*
X147870599Y-69462520D01*
X148080145Y-69391903D01*
X148084253Y-69389808D01*
X148084260Y-69389805D01*
X148273019Y-69293539D01*
X148277131Y-69291442D01*
X148303869Y-69272428D01*
X148436726Y-69177947D01*
X148457335Y-69163291D01*
X148616892Y-69010198D01*
X148619719Y-69006552D01*
X148749554Y-68839094D01*
X148749556Y-68839090D01*
X148752382Y-68835446D01*
X148860900Y-68642781D01*
X148940119Y-68436334D01*
X148962117Y-68337886D01*
X148987333Y-68225039D01*
X148987334Y-68225035D01*
X148988340Y-68220531D01*
X149001742Y-68037977D01*
X149003149Y-68026304D01*
X149004689Y-68017151D01*
X149005496Y-68012354D01*
X149005647Y-68000000D01*
X149001773Y-67972949D01*
X149000500Y-67955087D01*
X149000500Y-66626500D01*
X149020502Y-66558379D01*
X149074158Y-66511886D01*
X149126500Y-66500500D01*
X171873500Y-66500500D01*
X171941621Y-66520502D01*
X171988114Y-66574158D01*
X171999500Y-66626500D01*
X171999500Y-68991426D01*
X171999498Y-68992196D01*
X171999031Y-69068624D01*
X172006420Y-69094474D01*
X172006992Y-69096476D01*
X172010571Y-69113241D01*
X172014677Y-69141918D01*
X172018393Y-69150092D01*
X172018394Y-69150094D01*
X172025075Y-69164788D01*
X172031523Y-69182312D01*
X172035962Y-69197845D01*
X172035964Y-69197849D01*
X172038428Y-69206471D01*
X172043215Y-69214058D01*
X172053889Y-69230976D01*
X172062026Y-69246058D01*
X172070298Y-69264252D01*
X172070300Y-69264255D01*
X172074016Y-69272428D01*
X172084279Y-69284338D01*
X172090418Y-69291463D01*
X172101527Y-69306476D01*
X172114930Y-69327720D01*
X172121659Y-69333663D01*
X172121661Y-69333665D01*
X172136644Y-69346897D01*
X172148690Y-69359091D01*
X172161740Y-69374236D01*
X172167600Y-69381037D01*
X172188686Y-69394704D01*
X172203554Y-69405989D01*
X172222388Y-69422623D01*
X172248607Y-69434933D01*
X172263587Y-69443254D01*
X172280369Y-69454131D01*
X172280372Y-69454132D01*
X172287905Y-69459015D01*
X172311981Y-69466215D01*
X172329411Y-69472871D01*
X172352163Y-69483553D01*
X172361032Y-69484934D01*
X172380787Y-69488010D01*
X172397505Y-69491793D01*
X172416660Y-69497522D01*
X172416668Y-69497523D01*
X172425261Y-69500093D01*
X172434232Y-69500148D01*
X172434233Y-69500148D01*
X172438962Y-69500177D01*
X172459182Y-69500301D01*
X172459925Y-69500332D01*
X172461009Y-69500500D01*
X172491426Y-69500500D01*
X172492197Y-69500502D01*
X172568624Y-69500969D01*
X172569953Y-69500589D01*
X172571263Y-69500500D01*
X175491426Y-69500500D01*
X175492197Y-69500502D01*
X175568624Y-69500969D01*
X175596482Y-69493007D01*
X175613241Y-69489429D01*
X175623153Y-69488010D01*
X175633029Y-69486596D01*
X175633030Y-69486596D01*
X175641918Y-69485323D01*
X175650092Y-69481607D01*
X175650094Y-69481606D01*
X175664788Y-69474925D01*
X175682312Y-69468477D01*
X175697845Y-69464038D01*
X175697849Y-69464036D01*
X175706471Y-69461572D01*
X175730975Y-69446111D01*
X175746058Y-69437974D01*
X175764252Y-69429702D01*
X175764255Y-69429700D01*
X175772428Y-69425984D01*
X175791464Y-69409581D01*
X175806477Y-69398473D01*
X175810999Y-69395620D01*
X175827720Y-69385070D01*
X175833663Y-69378341D01*
X175833665Y-69378339D01*
X175846897Y-69363356D01*
X175859091Y-69351310D01*
X175874236Y-69338260D01*
X175881037Y-69332400D01*
X175894704Y-69311314D01*
X175905991Y-69296444D01*
X175916683Y-69284338D01*
X175916683Y-69284337D01*
X175922623Y-69277612D01*
X175934934Y-69251391D01*
X175943254Y-69236413D01*
X175954131Y-69219631D01*
X175954132Y-69219628D01*
X175959015Y-69212095D01*
X175966215Y-69188019D01*
X175972871Y-69170589D01*
X175983553Y-69147837D01*
X175988010Y-69119213D01*
X175991793Y-69102495D01*
X175997522Y-69083340D01*
X175997523Y-69083332D01*
X176000093Y-69074739D01*
X176000301Y-69040818D01*
X176000332Y-69040075D01*
X176000500Y-69038991D01*
X176000500Y-69008574D01*
X176000502Y-69007804D01*
X176000631Y-68986682D01*
X176000969Y-68931376D01*
X176000589Y-68930047D01*
X176000500Y-68928737D01*
X176000500Y-66626500D01*
X176020502Y-66558379D01*
X176074158Y-66511886D01*
X176126500Y-66500500D01*
X217873500Y-66500500D01*
X217941621Y-66520502D01*
X217988114Y-66574158D01*
X217999500Y-66626500D01*
X217999500Y-72373500D01*
X217979498Y-72441621D01*
X217925842Y-72488114D01*
X217873500Y-72499500D01*
X215508574Y-72499500D01*
X215507804Y-72499498D01*
X215507033Y-72499493D01*
X215431376Y-72499031D01*
X215403518Y-72506993D01*
X215386759Y-72510571D01*
X215377356Y-72511917D01*
X215366971Y-72513404D01*
X215366970Y-72513404D01*
X215358082Y-72514677D01*
X215349908Y-72518393D01*
X215349906Y-72518394D01*
X215335212Y-72525075D01*
X215317688Y-72531523D01*
X215302155Y-72535962D01*
X215302151Y-72535964D01*
X215293529Y-72538428D01*
X215285941Y-72543215D01*
X215285942Y-72543215D01*
X215269024Y-72553889D01*
X215253942Y-72562026D01*
X215235748Y-72570298D01*
X215235745Y-72570300D01*
X215227572Y-72574016D01*
X215220769Y-72579878D01*
X215208537Y-72590418D01*
X215193524Y-72601527D01*
X215172280Y-72614930D01*
X215166337Y-72621659D01*
X215166335Y-72621661D01*
X215153103Y-72636644D01*
X215140909Y-72648690D01*
X215137626Y-72651519D01*
X215118963Y-72667600D01*
X215105296Y-72688686D01*
X215094011Y-72703554D01*
X215077377Y-72722388D01*
X215067867Y-72742643D01*
X215065067Y-72748607D01*
X215056746Y-72763587D01*
X215045869Y-72780369D01*
X215045868Y-72780372D01*
X215040985Y-72787905D01*
X215033785Y-72811981D01*
X215027129Y-72829411D01*
X215016447Y-72852163D01*
X215015066Y-72861032D01*
X215011990Y-72880787D01*
X215008207Y-72897505D01*
X215002478Y-72916660D01*
X215002477Y-72916668D01*
X214999907Y-72925261D01*
X214999726Y-72954940D01*
X214999700Y-72959169D01*
X214999668Y-72959925D01*
X214999500Y-72961009D01*
X214999500Y-72991426D01*
X214999498Y-72992196D01*
X214999031Y-73068624D01*
X214999411Y-73069953D01*
X214999500Y-73071263D01*
X214999500Y-75991426D01*
X214999498Y-75992196D01*
X214999031Y-76068624D01*
X215001497Y-76077251D01*
X215006992Y-76096476D01*
X215010571Y-76113241D01*
X215014677Y-76141918D01*
X215018393Y-76150092D01*
X215018394Y-76150094D01*
X215025075Y-76164788D01*
X215031523Y-76182312D01*
X215035962Y-76197845D01*
X215035964Y-76197849D01*
X215038428Y-76206471D01*
X215043215Y-76214058D01*
X215053889Y-76230976D01*
X215062026Y-76246058D01*
X215070298Y-76264252D01*
X215070300Y-76264255D01*
X215074016Y-76272428D01*
X215079878Y-76279231D01*
X215090418Y-76291463D01*
X215101527Y-76306476D01*
X215114930Y-76327720D01*
X215121659Y-76333663D01*
X215121661Y-76333665D01*
X215136644Y-76346897D01*
X215148690Y-76359091D01*
X215161740Y-76374236D01*
X215167600Y-76381037D01*
X215188686Y-76394704D01*
X215203554Y-76405989D01*
X215222388Y-76422623D01*
X215248607Y-76434933D01*
X215263587Y-76443254D01*
X215280369Y-76454131D01*
X215280372Y-76454132D01*
X215287905Y-76459015D01*
X215311981Y-76466215D01*
X215329411Y-76472871D01*
X215352163Y-76483553D01*
X215361032Y-76484934D01*
X215380787Y-76488010D01*
X215397505Y-76491793D01*
X215416660Y-76497522D01*
X215416668Y-76497523D01*
X215425261Y-76500093D01*
X215434232Y-76500148D01*
X215434233Y-76500148D01*
X215438962Y-76500177D01*
X215459182Y-76500301D01*
X215459925Y-76500332D01*
X215461009Y-76500500D01*
X215491426Y-76500500D01*
X215492197Y-76500502D01*
X215568624Y-76500969D01*
X215569953Y-76500589D01*
X215571263Y-76500500D01*
X217873500Y-76500500D01*
X217941621Y-76520502D01*
X217988114Y-76574158D01*
X217999500Y-76626500D01*
X217999500Y-87373500D01*
X217979498Y-87441621D01*
X217925842Y-87488114D01*
X217873500Y-87499500D01*
X211008574Y-87499500D01*
X211007804Y-87499498D01*
X211007033Y-87499493D01*
X210931376Y-87499031D01*
X210903518Y-87506993D01*
X210886759Y-87510571D01*
X210877356Y-87511917D01*
X210866971Y-87513404D01*
X210866970Y-87513404D01*
X210858082Y-87514677D01*
X210849908Y-87518393D01*
X210849906Y-87518394D01*
X210835212Y-87525075D01*
X210817688Y-87531523D01*
X210802155Y-87535962D01*
X210802151Y-87535964D01*
X210793529Y-87538428D01*
X210785941Y-87543215D01*
X210785942Y-87543215D01*
X210769024Y-87553889D01*
X210753942Y-87562026D01*
X210735748Y-87570298D01*
X210735745Y-87570300D01*
X210727572Y-87574016D01*
X210720769Y-87579878D01*
X210708537Y-87590418D01*
X210693524Y-87601527D01*
X210672280Y-87614930D01*
X210666337Y-87621659D01*
X210666335Y-87621661D01*
X210653103Y-87636644D01*
X210640909Y-87648690D01*
X210625764Y-87661740D01*
X210618963Y-87667600D01*
X210605296Y-87688686D01*
X210594011Y-87703554D01*
X210577377Y-87722388D01*
X210565067Y-87748607D01*
X210556746Y-87763587D01*
X210545869Y-87780369D01*
X210545868Y-87780372D01*
X210540985Y-87787905D01*
X210533785Y-87811981D01*
X210527129Y-87829411D01*
X210516447Y-87852163D01*
X210515066Y-87861032D01*
X210511990Y-87880787D01*
X210508207Y-87897505D01*
X210502478Y-87916660D01*
X210502477Y-87916668D01*
X210499907Y-87925261D01*
X210499852Y-87934232D01*
X210499852Y-87934233D01*
X210499700Y-87959169D01*
X210499668Y-87959925D01*
X210499500Y-87961009D01*
X210499500Y-87991426D01*
X210499498Y-87992196D01*
X210499031Y-88068624D01*
X210499411Y-88069953D01*
X210499500Y-88071263D01*
X210499500Y-109373500D01*
X210479498Y-109441621D01*
X210425842Y-109488114D01*
X210373500Y-109499500D01*
X189126500Y-109499500D01*
X189058379Y-109479498D01*
X189011886Y-109425842D01*
X189000500Y-109373500D01*
X189000500Y-106508574D01*
X189000502Y-106507804D01*
X189000914Y-106440350D01*
X189000969Y-106431376D01*
X188993007Y-106403518D01*
X188989429Y-106386757D01*
X188986596Y-106366971D01*
X188986596Y-106366970D01*
X188985323Y-106358082D01*
X188974925Y-106335212D01*
X188968477Y-106317688D01*
X188964038Y-106302155D01*
X188964036Y-106302151D01*
X188961572Y-106293529D01*
X188946111Y-106269024D01*
X188937974Y-106253942D01*
X188929702Y-106235748D01*
X188929700Y-106235745D01*
X188925984Y-106227572D01*
X188909581Y-106208536D01*
X188898473Y-106193523D01*
X188895417Y-106188679D01*
X188885070Y-106172280D01*
X188878341Y-106166337D01*
X188878339Y-106166335D01*
X188863356Y-106153103D01*
X188851310Y-106140909D01*
X188838260Y-106125764D01*
X188832400Y-106118963D01*
X188811314Y-106105296D01*
X188796444Y-106094009D01*
X188784338Y-106083317D01*
X188784337Y-106083317D01*
X188777612Y-106077377D01*
X188751391Y-106065066D01*
X188736413Y-106056746D01*
X188719631Y-106045869D01*
X188719628Y-106045868D01*
X188712095Y-106040985D01*
X188688019Y-106033785D01*
X188670589Y-106027129D01*
X188647837Y-106016447D01*
X188619213Y-106011990D01*
X188602495Y-106008207D01*
X188583340Y-106002478D01*
X188583332Y-106002477D01*
X188574739Y-105999907D01*
X188565768Y-105999852D01*
X188565767Y-105999852D01*
X188561038Y-105999823D01*
X188540818Y-105999699D01*
X188540075Y-105999668D01*
X188538991Y-105999500D01*
X188508574Y-105999500D01*
X188507804Y-105999498D01*
X188507191Y-105999494D01*
X188431376Y-105999031D01*
X188430047Y-105999411D01*
X188428737Y-105999500D01*
X185008574Y-105999500D01*
X185007804Y-105999498D01*
X185007033Y-105999493D01*
X184931376Y-105999031D01*
X184903518Y-106006993D01*
X184886759Y-106010571D01*
X184877356Y-106011917D01*
X184866971Y-106013404D01*
X184866970Y-106013404D01*
X184858082Y-106014677D01*
X184849908Y-106018393D01*
X184849906Y-106018394D01*
X184835212Y-106025075D01*
X184817688Y-106031523D01*
X184802155Y-106035962D01*
X184802151Y-106035964D01*
X184793529Y-106038428D01*
X184785941Y-106043215D01*
X184785942Y-106043215D01*
X184769024Y-106053889D01*
X184753942Y-106062026D01*
X184735748Y-106070298D01*
X184735745Y-106070300D01*
X184727572Y-106074016D01*
X184720769Y-106079878D01*
X184708537Y-106090418D01*
X184693524Y-106101527D01*
X184672280Y-106114930D01*
X184666337Y-106121659D01*
X184666335Y-106121661D01*
X184653103Y-106136644D01*
X184640909Y-106148690D01*
X184635788Y-106153103D01*
X184618963Y-106167600D01*
X184605296Y-106188686D01*
X184594011Y-106203554D01*
X184577377Y-106222388D01*
X184571081Y-106235798D01*
X184565067Y-106248607D01*
X184556746Y-106263587D01*
X184545869Y-106280369D01*
X184545868Y-106280372D01*
X184540985Y-106287905D01*
X184533785Y-106311981D01*
X184527129Y-106329411D01*
X184516447Y-106352163D01*
X184515066Y-106361032D01*
X184511990Y-106380787D01*
X184508207Y-106397505D01*
X184502478Y-106416660D01*
X184502477Y-106416668D01*
X184499907Y-106425261D01*
X184499852Y-106434232D01*
X184499852Y-106434233D01*
X184499700Y-106459169D01*
X184499668Y-106459925D01*
X184499500Y-106461009D01*
X184499500Y-106491426D01*
X184499498Y-106492196D01*
X184499031Y-106568624D01*
X184499411Y-106569953D01*
X184499500Y-106571263D01*
X184499500Y-109373500D01*
X184479498Y-109441621D01*
X184425842Y-109488114D01*
X184373500Y-109499500D01*
X123126500Y-109499500D01*
X123058379Y-109479498D01*
X123011886Y-109425842D01*
X123000500Y-109373500D01*
X123000500Y-103547236D01*
X134744958Y-103547236D01*
X134771014Y-103845065D01*
X134836232Y-104136832D01*
X134939464Y-104417410D01*
X134941415Y-104421110D01*
X134941417Y-104421115D01*
X135076945Y-104678166D01*
X135078898Y-104681870D01*
X135252084Y-104925565D01*
X135455979Y-105144216D01*
X135687000Y-105333979D01*
X135941090Y-105491521D01*
X136213783Y-105614074D01*
X136388027Y-105666018D01*
X136496290Y-105698293D01*
X136496292Y-105698293D01*
X136500289Y-105699485D01*
X136504409Y-105700138D01*
X136504411Y-105700138D01*
X136622423Y-105718829D01*
X136795575Y-105746254D01*
X136838135Y-105748187D01*
X136887659Y-105750436D01*
X136887678Y-105750436D01*
X136889078Y-105750500D01*
X137075834Y-105750500D01*
X137298309Y-105735723D01*
X137591377Y-105676630D01*
X137874056Y-105579296D01*
X137877789Y-105577427D01*
X137877793Y-105577425D01*
X138137640Y-105447303D01*
X138137642Y-105447302D01*
X138141378Y-105445431D01*
X138388647Y-105277387D01*
X138394194Y-105272428D01*
X138608403Y-105080904D01*
X138608404Y-105080903D01*
X138611520Y-105078117D01*
X138806079Y-104851120D01*
X138881829Y-104734475D01*
X138966629Y-104603896D01*
X138966632Y-104603891D01*
X138968908Y-104600386D01*
X139011362Y-104510979D01*
X139095349Y-104334101D01*
X139097145Y-104330319D01*
X139105337Y-104304806D01*
X139187258Y-104049651D01*
X139187258Y-104049650D01*
X139188538Y-104045664D01*
X139224631Y-103845065D01*
X139240741Y-103755531D01*
X139240742Y-103755526D01*
X139241480Y-103751422D01*
X139250564Y-103551389D01*
X139253553Y-103485572D01*
X199244511Y-103485572D01*
X199262735Y-103816712D01*
X199263396Y-103820439D01*
X199263396Y-103820443D01*
X199267141Y-103841573D01*
X199320608Y-104143265D01*
X199321713Y-104146890D01*
X199321714Y-104146895D01*
X199367974Y-104298676D01*
X199417294Y-104460500D01*
X199551391Y-104763821D01*
X199553332Y-104767083D01*
X199719017Y-105045576D01*
X199719021Y-105045582D01*
X199720957Y-105048836D01*
X199923536Y-105311415D01*
X199926194Y-105314115D01*
X200111634Y-105502491D01*
X200156193Y-105547756D01*
X200415558Y-105754434D01*
X200697874Y-105928455D01*
X200701321Y-105930044D01*
X200995607Y-106065713D01*
X200995617Y-106065717D01*
X200999051Y-106067300D01*
X201002651Y-106068459D01*
X201002658Y-106068462D01*
X201311119Y-106167795D01*
X201311122Y-106167796D01*
X201314728Y-106168957D01*
X201318444Y-106169676D01*
X201318452Y-106169678D01*
X201636613Y-106231234D01*
X201636622Y-106231235D01*
X201640332Y-106231953D01*
X201644108Y-106232220D01*
X201644113Y-106232221D01*
X201742748Y-106239205D01*
X201902279Y-106250500D01*
X202083386Y-106250500D01*
X202085252Y-106250388D01*
X202085269Y-106250387D01*
X202327262Y-106235798D01*
X202327266Y-106235798D01*
X202331040Y-106235570D01*
X202334762Y-106234890D01*
X202334764Y-106234890D01*
X202412082Y-106220769D01*
X202657285Y-106175987D01*
X202974009Y-106077641D01*
X203276625Y-105941958D01*
X203560748Y-105770902D01*
X203563732Y-105768575D01*
X203563739Y-105768570D01*
X203819268Y-105569287D01*
X203819270Y-105569285D01*
X203822263Y-105566951D01*
X204019112Y-105371130D01*
X204054696Y-105335732D01*
X204057382Y-105333060D01*
X204084585Y-105298554D01*
X204260349Y-105075598D01*
X204262699Y-105072617D01*
X204435240Y-104789393D01*
X204540370Y-104558172D01*
X204570937Y-104490945D01*
X204570940Y-104490937D01*
X204572506Y-104487493D01*
X204672509Y-104171288D01*
X204733799Y-103845359D01*
X204755489Y-103514428D01*
X204737265Y-103183288D01*
X204732979Y-103159101D01*
X204680053Y-102860465D01*
X204679392Y-102856735D01*
X204670852Y-102828712D01*
X204583815Y-102543139D01*
X204582706Y-102539500D01*
X204448609Y-102236179D01*
X204378873Y-102118963D01*
X204280983Y-101954424D01*
X204280979Y-101954418D01*
X204279043Y-101951164D01*
X204076464Y-101688585D01*
X203978725Y-101589298D01*
X203846470Y-101454949D01*
X203846469Y-101454948D01*
X203843807Y-101452244D01*
X203584442Y-101245566D01*
X203302126Y-101071545D01*
X203158810Y-101005475D01*
X203004393Y-100934287D01*
X203004383Y-100934283D01*
X203000949Y-100932700D01*
X202997349Y-100931541D01*
X202997342Y-100931538D01*
X202688881Y-100832205D01*
X202688878Y-100832204D01*
X202685272Y-100831043D01*
X202681556Y-100830324D01*
X202681548Y-100830322D01*
X202363387Y-100768766D01*
X202363378Y-100768765D01*
X202359668Y-100768047D01*
X202355892Y-100767780D01*
X202355887Y-100767779D01*
X202257252Y-100760795D01*
X202097721Y-100749500D01*
X201916614Y-100749500D01*
X201914748Y-100749612D01*
X201914731Y-100749613D01*
X201672738Y-100764202D01*
X201672734Y-100764202D01*
X201668960Y-100764430D01*
X201665238Y-100765110D01*
X201665236Y-100765110D01*
X201649155Y-100768047D01*
X201342715Y-100824013D01*
X201025991Y-100922359D01*
X200723375Y-101058042D01*
X200439252Y-101229098D01*
X200436268Y-101231425D01*
X200436261Y-101231430D01*
X200195310Y-101419344D01*
X200177737Y-101433049D01*
X199942618Y-101666940D01*
X199940276Y-101669910D01*
X199940274Y-101669913D01*
X199810424Y-101834627D01*
X199737301Y-101927383D01*
X199564760Y-102210607D01*
X199516073Y-102317688D01*
X199429063Y-102509055D01*
X199429060Y-102509063D01*
X199427494Y-102512507D01*
X199327491Y-102828712D01*
X199266201Y-103154641D01*
X199244511Y-103485572D01*
X139253553Y-103485572D01*
X139254853Y-103456934D01*
X139254853Y-103456929D01*
X139255042Y-103452764D01*
X139228986Y-103154935D01*
X139163768Y-102863168D01*
X139060536Y-102582590D01*
X139037818Y-102539500D01*
X138923055Y-102321834D01*
X138923054Y-102321833D01*
X138921102Y-102318130D01*
X138747916Y-102074435D01*
X138544021Y-101855784D01*
X138313000Y-101666021D01*
X138058910Y-101508479D01*
X137786217Y-101385926D01*
X137573603Y-101322543D01*
X137503710Y-101301707D01*
X137503708Y-101301707D01*
X137499711Y-101300515D01*
X137495591Y-101299862D01*
X137495589Y-101299862D01*
X137377577Y-101281171D01*
X137204425Y-101253746D01*
X137161865Y-101251813D01*
X137112341Y-101249564D01*
X137112322Y-101249564D01*
X137110922Y-101249500D01*
X136924166Y-101249500D01*
X136701691Y-101264277D01*
X136408623Y-101323370D01*
X136125944Y-101420704D01*
X136122211Y-101422573D01*
X136122207Y-101422575D01*
X135946268Y-101510679D01*
X135858622Y-101554569D01*
X135611353Y-101722613D01*
X135608239Y-101725397D01*
X135608238Y-101725398D01*
X135519424Y-101804806D01*
X135388480Y-101921883D01*
X135193921Y-102148880D01*
X135162970Y-102196540D01*
X135050064Y-102370400D01*
X135031092Y-102399614D01*
X134902855Y-102669681D01*
X134901576Y-102673664D01*
X134901575Y-102673667D01*
X134850598Y-102832441D01*
X134811462Y-102954336D01*
X134810721Y-102958455D01*
X134774741Y-103158427D01*
X134758520Y-103248578D01*
X134758331Y-103252745D01*
X134758330Y-103252752D01*
X134746276Y-103518212D01*
X134744958Y-103547236D01*
X123000500Y-103547236D01*
X123000500Y-102508574D01*
X123000502Y-102507804D01*
X123000914Y-102440350D01*
X123000969Y-102431376D01*
X122993007Y-102403518D01*
X122989429Y-102386757D01*
X122986596Y-102366971D01*
X122986596Y-102366970D01*
X122985323Y-102358082D01*
X122974925Y-102335212D01*
X122968477Y-102317688D01*
X122964038Y-102302155D01*
X122964036Y-102302151D01*
X122961572Y-102293529D01*
X122946111Y-102269024D01*
X122937974Y-102253942D01*
X122929702Y-102235748D01*
X122929700Y-102235745D01*
X122925984Y-102227572D01*
X122909581Y-102208536D01*
X122898473Y-102193523D01*
X122895417Y-102188679D01*
X122885070Y-102172280D01*
X122878341Y-102166337D01*
X122878339Y-102166335D01*
X122863356Y-102153103D01*
X122851310Y-102140909D01*
X122838260Y-102125764D01*
X122832400Y-102118963D01*
X122811314Y-102105296D01*
X122796444Y-102094009D01*
X122784338Y-102083317D01*
X122784337Y-102083317D01*
X122777612Y-102077377D01*
X122751391Y-102065066D01*
X122736413Y-102056746D01*
X122719631Y-102045869D01*
X122719628Y-102045868D01*
X122712095Y-102040985D01*
X122688019Y-102033785D01*
X122670589Y-102027129D01*
X122647837Y-102016447D01*
X122619213Y-102011990D01*
X122602495Y-102008207D01*
X122583340Y-102002478D01*
X122583332Y-102002477D01*
X122574739Y-101999907D01*
X122565768Y-101999852D01*
X122565767Y-101999852D01*
X122561038Y-101999823D01*
X122540818Y-101999699D01*
X122540075Y-101999668D01*
X122538991Y-101999500D01*
X122508574Y-101999500D01*
X122507804Y-101999498D01*
X122507191Y-101999494D01*
X122431376Y-101999031D01*
X122430047Y-101999411D01*
X122428737Y-101999500D01*
X76508574Y-101999500D01*
X76507804Y-101999498D01*
X76507033Y-101999493D01*
X76431376Y-101999031D01*
X76403518Y-102006993D01*
X76386759Y-102010571D01*
X76377356Y-102011917D01*
X76366971Y-102013404D01*
X76366970Y-102013404D01*
X76358082Y-102014677D01*
X76349908Y-102018393D01*
X76349906Y-102018394D01*
X76335212Y-102025075D01*
X76317688Y-102031523D01*
X76302155Y-102035962D01*
X76302151Y-102035964D01*
X76293529Y-102038428D01*
X76285941Y-102043215D01*
X76285942Y-102043215D01*
X76269024Y-102053889D01*
X76253942Y-102062026D01*
X76235748Y-102070298D01*
X76235745Y-102070300D01*
X76227572Y-102074016D01*
X76220769Y-102079878D01*
X76208537Y-102090418D01*
X76193524Y-102101527D01*
X76172280Y-102114930D01*
X76166337Y-102121659D01*
X76166335Y-102121661D01*
X76153103Y-102136644D01*
X76140909Y-102148690D01*
X76135788Y-102153103D01*
X76118963Y-102167600D01*
X76105296Y-102188686D01*
X76094011Y-102203554D01*
X76077377Y-102222388D01*
X76065533Y-102247615D01*
X76065067Y-102248607D01*
X76056746Y-102263587D01*
X76045869Y-102280369D01*
X76045868Y-102280372D01*
X76040985Y-102287905D01*
X76033785Y-102311981D01*
X76027129Y-102329411D01*
X76016447Y-102352163D01*
X76015066Y-102361032D01*
X76011990Y-102380787D01*
X76008207Y-102397505D01*
X76002478Y-102416660D01*
X76002477Y-102416668D01*
X75999907Y-102425261D01*
X75999852Y-102434232D01*
X75999852Y-102434233D01*
X75999700Y-102459169D01*
X75999668Y-102459925D01*
X75999500Y-102461009D01*
X75999500Y-102491426D01*
X75999498Y-102492196D01*
X75999031Y-102568624D01*
X75999411Y-102569953D01*
X75999500Y-102571263D01*
X75999500Y-109373500D01*
X75979498Y-109441621D01*
X75925842Y-109488114D01*
X75873500Y-109499500D01*
X55626500Y-109499500D01*
X55558379Y-109479498D01*
X55511886Y-109425842D01*
X55500500Y-109373500D01*
X55500500Y-106052576D01*
X55502246Y-106031671D01*
X55504166Y-106020260D01*
X55505496Y-106012354D01*
X55505647Y-106000000D01*
X55503653Y-105986076D01*
X55502704Y-105977223D01*
X55489342Y-105790399D01*
X55489021Y-105785911D01*
X55465428Y-105677457D01*
X55444352Y-105580569D01*
X55444351Y-105580566D01*
X55443397Y-105576180D01*
X55441830Y-105571978D01*
X55441828Y-105571972D01*
X55369960Y-105379289D01*
X55368389Y-105375077D01*
X55356107Y-105352583D01*
X55267684Y-105190650D01*
X55265525Y-105186696D01*
X55136899Y-105014871D01*
X54985129Y-104863101D01*
X54813304Y-104734475D01*
X54624923Y-104631611D01*
X54550617Y-104603896D01*
X54428028Y-104558172D01*
X54428022Y-104558170D01*
X54423820Y-104556603D01*
X54419434Y-104555649D01*
X54419431Y-104555648D01*
X54295962Y-104528789D01*
X54214089Y-104510979D01*
X54039502Y-104498492D01*
X54027590Y-104497067D01*
X54017156Y-104495311D01*
X54017145Y-104495310D01*
X54012354Y-104494504D01*
X54006136Y-104494428D01*
X54004859Y-104494412D01*
X54004854Y-104494412D01*
X54000000Y-104494353D01*
X53974087Y-104498064D01*
X53972949Y-104498227D01*
X53955087Y-104499500D01*
X52626500Y-104499500D01*
X52558379Y-104479498D01*
X52511886Y-104425842D01*
X52500500Y-104373500D01*
X52500500Y-104004924D01*
X58799500Y-104004924D01*
X58809698Y-104119187D01*
X58862923Y-104304806D01*
X58952385Y-104475930D01*
X58956414Y-104480870D01*
X58956416Y-104480873D01*
X58969624Y-104497067D01*
X59074429Y-104625571D01*
X59079369Y-104629600D01*
X59207959Y-104734475D01*
X59224070Y-104747615D01*
X59229718Y-104750568D01*
X59229720Y-104750569D01*
X59297394Y-104785948D01*
X59395194Y-104837077D01*
X59401322Y-104838834D01*
X59401324Y-104838835D01*
X59485951Y-104863101D01*
X59580813Y-104890302D01*
X59613096Y-104893183D01*
X59692283Y-104900251D01*
X59692289Y-104900251D01*
X59695076Y-104900500D01*
X61304924Y-104900500D01*
X61307711Y-104900251D01*
X61307717Y-104900251D01*
X61386904Y-104893183D01*
X61419187Y-104890302D01*
X61514049Y-104863101D01*
X61598676Y-104838835D01*
X61598678Y-104838834D01*
X61604806Y-104837077D01*
X61702606Y-104785948D01*
X61770280Y-104750569D01*
X61770282Y-104750568D01*
X61775930Y-104747615D01*
X61792042Y-104734475D01*
X61920631Y-104629600D01*
X61925571Y-104625571D01*
X62030376Y-104497067D01*
X62043584Y-104480873D01*
X62043586Y-104480870D01*
X62047615Y-104475930D01*
X62137077Y-104304806D01*
X62190302Y-104119187D01*
X62200500Y-104004924D01*
X62200500Y-102995076D01*
X62190302Y-102880813D01*
X62137077Y-102695194D01*
X62071765Y-102570265D01*
X62050569Y-102529720D01*
X62050568Y-102529718D01*
X62047615Y-102524070D01*
X62041136Y-102516125D01*
X61929600Y-102379369D01*
X61925571Y-102374429D01*
X61892728Y-102347643D01*
X61852580Y-102289088D01*
X61850463Y-102218123D01*
X61887048Y-102157279D01*
X61892728Y-102152357D01*
X61920631Y-102129600D01*
X61925571Y-102125571D01*
X61954241Y-102090418D01*
X62043584Y-101980873D01*
X62043586Y-101980870D01*
X62047615Y-101975930D01*
X62060563Y-101951164D01*
X62088635Y-101897467D01*
X62137077Y-101804806D01*
X62190302Y-101619187D01*
X62196236Y-101552697D01*
X62200251Y-101507717D01*
X62200251Y-101507711D01*
X62200500Y-101504924D01*
X62200500Y-101000000D01*
X64194532Y-101000000D01*
X64214365Y-101226692D01*
X64215789Y-101232005D01*
X64215789Y-101232007D01*
X64265986Y-101419344D01*
X64273261Y-101446496D01*
X64275583Y-101451476D01*
X64275584Y-101451478D01*
X64353789Y-101619187D01*
X64369432Y-101652734D01*
X64499953Y-101839139D01*
X64660861Y-102000047D01*
X64847266Y-102130568D01*
X64852244Y-102132889D01*
X64852247Y-102132891D01*
X65029749Y-102215662D01*
X65053504Y-102226739D01*
X65058812Y-102228161D01*
X65058814Y-102228162D01*
X65267993Y-102284211D01*
X65267995Y-102284211D01*
X65273308Y-102285635D01*
X65500000Y-102305468D01*
X65726692Y-102285635D01*
X65732005Y-102284211D01*
X65732007Y-102284211D01*
X65941186Y-102228162D01*
X65941188Y-102228161D01*
X65946496Y-102226739D01*
X65970251Y-102215662D01*
X66147753Y-102132891D01*
X66147756Y-102132889D01*
X66152734Y-102130568D01*
X66339139Y-102000047D01*
X66500047Y-101839139D01*
X66630568Y-101652734D01*
X66635805Y-101641504D01*
X66682722Y-101588218D01*
X66750999Y-101568757D01*
X66818959Y-101589298D01*
X66864195Y-101641504D01*
X66869432Y-101652734D01*
X66999953Y-101839139D01*
X67160861Y-102000047D01*
X67347266Y-102130568D01*
X67352244Y-102132889D01*
X67352247Y-102132891D01*
X67529749Y-102215662D01*
X67553504Y-102226739D01*
X67558812Y-102228161D01*
X67558814Y-102228162D01*
X67767993Y-102284211D01*
X67767995Y-102284211D01*
X67773308Y-102285635D01*
X68000000Y-102305468D01*
X68226692Y-102285635D01*
X68232005Y-102284211D01*
X68232007Y-102284211D01*
X68441186Y-102228162D01*
X68441188Y-102228161D01*
X68446496Y-102226739D01*
X68470251Y-102215662D01*
X68647753Y-102132891D01*
X68647756Y-102132889D01*
X68652734Y-102130568D01*
X68839139Y-102000047D01*
X69000047Y-101839139D01*
X69130568Y-101652734D01*
X69146212Y-101619187D01*
X69224416Y-101451478D01*
X69224417Y-101451476D01*
X69226739Y-101446496D01*
X69234015Y-101419344D01*
X69284211Y-101232007D01*
X69284211Y-101232005D01*
X69285635Y-101226692D01*
X69305468Y-101000000D01*
X69285635Y-100773308D01*
X69284154Y-100767779D01*
X69228162Y-100558814D01*
X69228161Y-100558812D01*
X69226739Y-100553504D01*
X69200800Y-100497878D01*
X69132891Y-100352247D01*
X69132889Y-100352244D01*
X69130568Y-100347266D01*
X69000047Y-100160861D01*
X68839139Y-99999953D01*
X68652734Y-99869432D01*
X68647753Y-99867109D01*
X68647749Y-99867107D01*
X68641504Y-99864195D01*
X68588218Y-99817278D01*
X68568757Y-99749001D01*
X68589298Y-99681041D01*
X68641504Y-99635805D01*
X68647749Y-99632893D01*
X68647753Y-99632891D01*
X68652734Y-99630568D01*
X68839139Y-99500047D01*
X69000047Y-99339139D01*
X69130568Y-99152734D01*
X69160986Y-99087504D01*
X69224416Y-98951478D01*
X69224417Y-98951476D01*
X69226739Y-98946496D01*
X69285635Y-98726692D01*
X69305468Y-98500000D01*
X69285635Y-98273308D01*
X69277619Y-98243391D01*
X69228162Y-98058814D01*
X69228161Y-98058812D01*
X69226739Y-98053504D01*
X69224416Y-98048522D01*
X69132891Y-97852247D01*
X69132889Y-97852244D01*
X69130568Y-97847266D01*
X69000047Y-97660861D01*
X68839139Y-97499953D01*
X68652734Y-97369432D01*
X68647753Y-97367109D01*
X68647749Y-97367107D01*
X68641504Y-97364195D01*
X68588218Y-97317278D01*
X68568757Y-97249001D01*
X68589298Y-97181041D01*
X68641504Y-97135805D01*
X68647749Y-97132893D01*
X68647753Y-97132891D01*
X68652734Y-97130568D01*
X68839139Y-97000047D01*
X69000047Y-96839139D01*
X69130568Y-96652734D01*
X69146212Y-96619187D01*
X69224416Y-96451478D01*
X69224417Y-96451476D01*
X69226739Y-96446496D01*
X69285635Y-96226692D01*
X69305468Y-96000000D01*
X69285635Y-95773308D01*
X69252281Y-95648828D01*
X69228162Y-95558814D01*
X69228161Y-95558812D01*
X69226739Y-95553504D01*
X69200800Y-95497878D01*
X69132891Y-95352247D01*
X69132889Y-95352244D01*
X69130568Y-95347266D01*
X69000047Y-95160861D01*
X68839139Y-94999953D01*
X68652734Y-94869432D01*
X68647756Y-94867111D01*
X68647753Y-94867109D01*
X68451478Y-94775584D01*
X68451476Y-94775583D01*
X68446496Y-94773261D01*
X68441188Y-94771839D01*
X68441186Y-94771838D01*
X68232007Y-94715789D01*
X68232005Y-94715789D01*
X68226692Y-94714365D01*
X68000000Y-94694532D01*
X67773308Y-94714365D01*
X67767995Y-94715789D01*
X67767993Y-94715789D01*
X67558814Y-94771838D01*
X67558812Y-94771839D01*
X67553504Y-94773261D01*
X67548524Y-94775583D01*
X67548522Y-94775584D01*
X67352247Y-94867109D01*
X67352244Y-94867111D01*
X67347266Y-94869432D01*
X67160861Y-94999953D01*
X66999953Y-95160861D01*
X66869432Y-95347266D01*
X66867109Y-95352247D01*
X66867107Y-95352251D01*
X66864195Y-95358496D01*
X66817278Y-95411782D01*
X66749001Y-95431243D01*
X66681041Y-95410702D01*
X66635805Y-95358496D01*
X66632893Y-95352251D01*
X66632891Y-95352247D01*
X66630568Y-95347266D01*
X66500047Y-95160861D01*
X66339139Y-94999953D01*
X66152734Y-94869432D01*
X66147756Y-94867111D01*
X66147753Y-94867109D01*
X65951478Y-94775584D01*
X65951476Y-94775583D01*
X65946496Y-94773261D01*
X65941188Y-94771839D01*
X65941186Y-94771838D01*
X65732007Y-94715789D01*
X65732005Y-94715789D01*
X65726692Y-94714365D01*
X65500000Y-94694532D01*
X65273308Y-94714365D01*
X65267995Y-94715789D01*
X65267993Y-94715789D01*
X65058814Y-94771838D01*
X65058812Y-94771839D01*
X65053504Y-94773261D01*
X65048524Y-94775583D01*
X65048522Y-94775584D01*
X64852247Y-94867109D01*
X64852244Y-94867111D01*
X64847266Y-94869432D01*
X64660861Y-94999953D01*
X64499953Y-95160861D01*
X64369432Y-95347266D01*
X64367111Y-95352244D01*
X64367109Y-95352247D01*
X64299200Y-95497878D01*
X64273261Y-95553504D01*
X64271839Y-95558812D01*
X64271838Y-95558814D01*
X64247719Y-95648828D01*
X64214365Y-95773308D01*
X64194532Y-96000000D01*
X64214365Y-96226692D01*
X64273261Y-96446496D01*
X64275583Y-96451476D01*
X64275584Y-96451478D01*
X64353789Y-96619187D01*
X64369432Y-96652734D01*
X64499953Y-96839139D01*
X64660861Y-97000047D01*
X64847266Y-97130568D01*
X64852247Y-97132891D01*
X64852251Y-97132893D01*
X64858496Y-97135805D01*
X64911782Y-97182722D01*
X64931243Y-97250999D01*
X64910702Y-97318959D01*
X64858496Y-97364195D01*
X64852251Y-97367107D01*
X64852247Y-97367109D01*
X64847266Y-97369432D01*
X64660861Y-97499953D01*
X64499953Y-97660861D01*
X64369432Y-97847266D01*
X64367111Y-97852244D01*
X64367109Y-97852247D01*
X64275584Y-98048522D01*
X64273261Y-98053504D01*
X64271839Y-98058812D01*
X64271838Y-98058814D01*
X64222381Y-98243391D01*
X64214365Y-98273308D01*
X64194532Y-98500000D01*
X64214365Y-98726692D01*
X64273261Y-98946496D01*
X64275583Y-98951476D01*
X64275584Y-98951478D01*
X64339015Y-99087504D01*
X64369432Y-99152734D01*
X64499953Y-99339139D01*
X64660861Y-99500047D01*
X64847266Y-99630568D01*
X64852247Y-99632891D01*
X64852251Y-99632893D01*
X64858496Y-99635805D01*
X64911782Y-99682722D01*
X64931243Y-99750999D01*
X64910702Y-99818959D01*
X64858496Y-99864195D01*
X64852251Y-99867107D01*
X64852247Y-99867109D01*
X64847266Y-99869432D01*
X64660861Y-99999953D01*
X64499953Y-100160861D01*
X64369432Y-100347266D01*
X64367111Y-100352244D01*
X64367109Y-100352247D01*
X64299200Y-100497878D01*
X64273261Y-100553504D01*
X64271839Y-100558812D01*
X64271838Y-100558814D01*
X64215846Y-100767779D01*
X64214365Y-100773308D01*
X64194532Y-101000000D01*
X62200500Y-101000000D01*
X62200500Y-100495076D01*
X62190302Y-100380813D01*
X62139668Y-100204229D01*
X62138835Y-100201324D01*
X62138834Y-100201322D01*
X62137077Y-100195194D01*
X62088635Y-100102533D01*
X62050569Y-100029720D01*
X62050568Y-100029718D01*
X62047615Y-100024070D01*
X62031123Y-100003848D01*
X61929600Y-99879369D01*
X61925571Y-99874429D01*
X61830261Y-99796696D01*
X61780873Y-99756416D01*
X61780870Y-99756414D01*
X61775930Y-99752385D01*
X61712649Y-99719302D01*
X61697467Y-99711365D01*
X61604806Y-99662923D01*
X61598678Y-99661166D01*
X61598676Y-99661165D01*
X61437740Y-99615018D01*
X61419187Y-99609698D01*
X61386904Y-99606817D01*
X61307717Y-99599749D01*
X61307711Y-99599749D01*
X61304924Y-99599500D01*
X59695076Y-99599500D01*
X59692289Y-99599749D01*
X59692283Y-99599749D01*
X59613096Y-99606817D01*
X59580813Y-99609698D01*
X59562260Y-99615018D01*
X59401324Y-99661165D01*
X59401322Y-99661166D01*
X59395194Y-99662923D01*
X59302533Y-99711365D01*
X59287352Y-99719302D01*
X59224070Y-99752385D01*
X59219130Y-99756414D01*
X59219127Y-99756416D01*
X59169739Y-99796696D01*
X59074429Y-99874429D01*
X59070400Y-99879369D01*
X58968878Y-100003848D01*
X58952385Y-100024070D01*
X58949432Y-100029718D01*
X58949431Y-100029720D01*
X58911365Y-100102533D01*
X58862923Y-100195194D01*
X58861166Y-100201322D01*
X58861165Y-100201324D01*
X58860332Y-100204229D01*
X58809698Y-100380813D01*
X58799500Y-100495076D01*
X58799500Y-101504924D01*
X58799749Y-101507711D01*
X58799749Y-101507717D01*
X58803764Y-101552697D01*
X58809698Y-101619187D01*
X58862923Y-101804806D01*
X58911365Y-101897467D01*
X58939438Y-101951164D01*
X58952385Y-101975930D01*
X58956414Y-101980870D01*
X58956416Y-101980873D01*
X59045759Y-102090418D01*
X59074429Y-102125571D01*
X59079369Y-102129600D01*
X59107272Y-102152357D01*
X59147420Y-102210912D01*
X59149537Y-102281877D01*
X59112952Y-102342721D01*
X59107273Y-102347642D01*
X59074429Y-102374429D01*
X59070400Y-102379369D01*
X58958865Y-102516125D01*
X58952385Y-102524070D01*
X58949432Y-102529718D01*
X58949431Y-102529720D01*
X58928235Y-102570265D01*
X58862923Y-102695194D01*
X58809698Y-102880813D01*
X58799500Y-102995076D01*
X58799500Y-104004924D01*
X52500500Y-104004924D01*
X52500500Y-98455361D01*
X53795316Y-98455361D01*
X53795540Y-98460027D01*
X53795540Y-98460033D01*
X53797268Y-98496006D01*
X53807443Y-98707820D01*
X53808356Y-98712409D01*
X53854919Y-98946496D01*
X53856752Y-98955713D01*
X53858331Y-98960111D01*
X53858333Y-98960118D01*
X53923457Y-99141504D01*
X53942160Y-99193595D01*
X54061792Y-99416240D01*
X54064587Y-99419984D01*
X54064589Y-99419986D01*
X54210226Y-99615018D01*
X54210231Y-99615024D01*
X54213018Y-99618756D01*
X54216327Y-99622036D01*
X54216332Y-99622042D01*
X54389200Y-99793408D01*
X54392517Y-99796696D01*
X54396279Y-99799454D01*
X54396282Y-99799457D01*
X54592575Y-99943384D01*
X54596346Y-99946149D01*
X54600481Y-99948325D01*
X54600485Y-99948327D01*
X54717952Y-100010129D01*
X54820026Y-100063833D01*
X55058644Y-100147162D01*
X55063237Y-100148034D01*
X55302369Y-100193435D01*
X55302372Y-100193435D01*
X55306958Y-100194306D01*
X55427081Y-100199026D01*
X55554845Y-100204046D01*
X55554850Y-100204046D01*
X55559513Y-100204229D01*
X55642011Y-100195194D01*
X55806107Y-100177223D01*
X55806112Y-100177222D01*
X55810760Y-100176713D01*
X55870971Y-100160861D01*
X56050658Y-100113554D01*
X56050661Y-100113553D01*
X56055181Y-100112363D01*
X56208848Y-100046342D01*
X56283111Y-100014436D01*
X56283113Y-100014435D01*
X56287405Y-100012591D01*
X56394774Y-99946149D01*
X56498358Y-99882050D01*
X56498362Y-99882047D01*
X56502331Y-99879591D01*
X56596989Y-99799457D01*
X56691672Y-99719302D01*
X56691673Y-99719301D01*
X56695238Y-99716283D01*
X56742034Y-99662923D01*
X56858806Y-99529771D01*
X56858810Y-99529766D01*
X56861888Y-99526256D01*
X56932653Y-99416240D01*
X56996094Y-99317610D01*
X56996096Y-99317607D01*
X56998619Y-99313684D01*
X57102428Y-99083236D01*
X57171034Y-98839976D01*
X57181199Y-98760070D01*
X57202533Y-98592378D01*
X57202533Y-98592372D01*
X57202931Y-98589247D01*
X57205268Y-98500000D01*
X57204861Y-98494525D01*
X57186883Y-98252597D01*
X57186882Y-98252593D01*
X57186537Y-98247945D01*
X57130756Y-98001428D01*
X57118511Y-97969939D01*
X57040843Y-97770216D01*
X57040842Y-97770214D01*
X57039150Y-97765863D01*
X56913731Y-97546426D01*
X56798692Y-97400500D01*
X56760147Y-97351606D01*
X56760144Y-97351603D01*
X56757255Y-97347938D01*
X56573160Y-97174758D01*
X56365489Y-97030691D01*
X56361296Y-97028623D01*
X56142993Y-96920968D01*
X56142990Y-96920967D01*
X56138805Y-96918903D01*
X56099493Y-96906319D01*
X56042403Y-96888045D01*
X55898087Y-96841849D01*
X55893480Y-96841099D01*
X55893477Y-96841098D01*
X55695444Y-96808846D01*
X55648624Y-96801221D01*
X55526026Y-96799616D01*
X55400573Y-96797974D01*
X55400570Y-96797974D01*
X55395896Y-96797913D01*
X55145455Y-96831996D01*
X55140965Y-96833305D01*
X55140959Y-96833306D01*
X55037851Y-96863360D01*
X54902803Y-96902723D01*
X54898556Y-96904681D01*
X54898553Y-96904682D01*
X54863226Y-96920968D01*
X54673270Y-97008539D01*
X54669361Y-97011102D01*
X54465812Y-97144554D01*
X54465807Y-97144558D01*
X54461899Y-97147120D01*
X54273333Y-97315421D01*
X54111715Y-97509746D01*
X53980595Y-97725825D01*
X53978786Y-97730139D01*
X53978785Y-97730141D01*
X53902617Y-97911782D01*
X53882854Y-97958911D01*
X53820639Y-98203883D01*
X53795316Y-98455361D01*
X52500500Y-98455361D01*
X52500500Y-96504924D01*
X58799500Y-96504924D01*
X58809698Y-96619187D01*
X58820609Y-96657239D01*
X58855144Y-96777676D01*
X58862923Y-96804806D01*
X58952385Y-96975930D01*
X58956414Y-96980870D01*
X58956416Y-96980873D01*
X59070400Y-97120631D01*
X59074429Y-97125571D01*
X59079369Y-97129600D01*
X59104673Y-97150237D01*
X59224070Y-97247615D01*
X59395194Y-97337077D01*
X59401322Y-97338834D01*
X59401324Y-97338835D01*
X59445863Y-97351606D01*
X59580813Y-97390302D01*
X59613096Y-97393183D01*
X59692283Y-97400251D01*
X59692289Y-97400251D01*
X59695076Y-97400500D01*
X61304924Y-97400500D01*
X61307711Y-97400251D01*
X61307717Y-97400251D01*
X61386904Y-97393183D01*
X61419187Y-97390302D01*
X61554137Y-97351606D01*
X61598676Y-97338835D01*
X61598678Y-97338834D01*
X61604806Y-97337077D01*
X61775930Y-97247615D01*
X61895328Y-97150237D01*
X61920631Y-97129600D01*
X61925571Y-97125571D01*
X61929600Y-97120631D01*
X62043584Y-96980873D01*
X62043586Y-96980870D01*
X62047615Y-96975930D01*
X62137077Y-96804806D01*
X62144857Y-96777676D01*
X62179391Y-96657239D01*
X62190302Y-96619187D01*
X62200500Y-96504924D01*
X62200500Y-95495076D01*
X62190302Y-95380813D01*
X62166464Y-95297679D01*
X62138835Y-95201324D01*
X62138834Y-95201322D01*
X62137077Y-95195194D01*
X62047615Y-95024070D01*
X62031123Y-95003848D01*
X61929600Y-94879369D01*
X61925571Y-94874429D01*
X61892728Y-94847643D01*
X61852580Y-94789088D01*
X61850463Y-94718123D01*
X61887048Y-94657279D01*
X61892728Y-94652357D01*
X61920631Y-94629600D01*
X61925571Y-94625571D01*
X61929600Y-94620631D01*
X62043584Y-94480873D01*
X62043586Y-94480870D01*
X62047615Y-94475930D01*
X62137077Y-94304806D01*
X62190302Y-94119187D01*
X62200500Y-94004924D01*
X62200500Y-92995076D01*
X62190302Y-92880813D01*
X62137077Y-92695194D01*
X62047615Y-92524070D01*
X61976695Y-92437113D01*
X97494959Y-92437113D01*
X97509259Y-92918913D01*
X97562152Y-93398015D01*
X97562630Y-93400497D01*
X97609067Y-93641640D01*
X97653298Y-93871331D01*
X97782111Y-94335813D01*
X97782980Y-94338187D01*
X97946889Y-94786093D01*
X97946894Y-94786104D01*
X97947759Y-94788469D01*
X97948814Y-94790763D01*
X97948817Y-94790770D01*
X98137651Y-95201324D01*
X98149176Y-95226381D01*
X98258392Y-95421001D01*
X98329954Y-95548522D01*
X98385065Y-95646729D01*
X98653905Y-96046806D01*
X98953965Y-96424032D01*
X98955688Y-96425874D01*
X98955693Y-96425879D01*
X99281590Y-96774141D01*
X99283311Y-96775980D01*
X99307415Y-96797913D01*
X99637943Y-97098670D01*
X99637952Y-97098678D01*
X99639823Y-97100380D01*
X99641830Y-97101932D01*
X99641831Y-97101932D01*
X99677629Y-97129600D01*
X100021202Y-97395144D01*
X100424993Y-97658372D01*
X100427215Y-97659579D01*
X100427221Y-97659582D01*
X100429577Y-97660861D01*
X100848594Y-97888368D01*
X101289276Y-98083652D01*
X101291640Y-98084480D01*
X101291653Y-98084485D01*
X101632602Y-98203883D01*
X101744200Y-98242964D01*
X102210435Y-98365278D01*
X102684978Y-98449807D01*
X102687484Y-98450048D01*
X102687489Y-98450049D01*
X102869103Y-98467536D01*
X103164771Y-98496006D01*
X103167306Y-98496046D01*
X103167309Y-98496046D01*
X103321996Y-98498476D01*
X103646724Y-98503577D01*
X103649243Y-98503414D01*
X103649247Y-98503414D01*
X104125198Y-98472636D01*
X104125201Y-98472636D01*
X104127732Y-98472472D01*
X104130235Y-98472107D01*
X104130243Y-98472106D01*
X104333177Y-98442501D01*
X104604696Y-98402890D01*
X105074543Y-98295281D01*
X105534247Y-98150337D01*
X105700987Y-98082631D01*
X105978513Y-97969939D01*
X105978514Y-97969938D01*
X105980845Y-97968992D01*
X106384723Y-97765863D01*
X106409213Y-97753546D01*
X106409220Y-97753542D01*
X106411461Y-97752415D01*
X106823321Y-97502000D01*
X106825355Y-97500528D01*
X106825362Y-97500523D01*
X107211717Y-97220848D01*
X107211719Y-97220846D01*
X107213771Y-97219361D01*
X107580296Y-96906319D01*
X107583880Y-96902723D01*
X107745467Y-96740570D01*
X107920535Y-96564891D01*
X107922173Y-96562960D01*
X108230664Y-96199200D01*
X108230670Y-96199192D01*
X108232296Y-96197275D01*
X108513570Y-95805841D01*
X108762546Y-95393109D01*
X108771551Y-95375049D01*
X108876091Y-95165373D01*
X108977619Y-94961739D01*
X109085036Y-94694532D01*
X109156464Y-94516850D01*
X109156466Y-94516844D01*
X109157404Y-94514511D01*
X109171181Y-94470280D01*
X109280533Y-94119187D01*
X109300742Y-94054304D01*
X109406711Y-93584084D01*
X109433193Y-93398015D01*
X109474271Y-93109381D01*
X109474627Y-93106880D01*
X109504053Y-92625767D01*
X109505370Y-92500000D01*
X109489694Y-92109698D01*
X109486128Y-92020911D01*
X109486128Y-92020906D01*
X109486026Y-92018376D01*
X109440113Y-91638968D01*
X109428424Y-91542372D01*
X109428423Y-91542365D01*
X109428119Y-91539854D01*
X109427618Y-91537392D01*
X109427616Y-91537379D01*
X109341667Y-91114930D01*
X109332021Y-91067518D01*
X109198352Y-90604411D01*
X109027972Y-90153515D01*
X108821980Y-89717736D01*
X108670866Y-89454940D01*
X108582968Y-89302080D01*
X108582962Y-89302071D01*
X108581703Y-89299881D01*
X108308688Y-88902642D01*
X108004695Y-88528578D01*
X107671681Y-88180098D01*
X107662907Y-88172280D01*
X107313679Y-87861130D01*
X107313675Y-87861127D01*
X107311792Y-87859449D01*
X107260881Y-87820945D01*
X106929352Y-87570212D01*
X106929350Y-87570211D01*
X106927346Y-87568695D01*
X106911295Y-87558469D01*
X106522965Y-87311076D01*
X106520821Y-87309710D01*
X106518584Y-87308526D01*
X106518571Y-87308518D01*
X106097081Y-87085351D01*
X106097077Y-87085349D01*
X106094835Y-87084162D01*
X105652132Y-86893504D01*
X105195565Y-86738965D01*
X104796737Y-86638786D01*
X104730527Y-86622155D01*
X104730523Y-86622154D01*
X104728074Y-86621539D01*
X104725581Y-86621122D01*
X104725577Y-86621121D01*
X104574892Y-86595905D01*
X104252672Y-86541984D01*
X103772422Y-86500812D01*
X103515334Y-86499466D01*
X103292947Y-86498301D01*
X103292941Y-86498301D01*
X103290416Y-86498288D01*
X102809760Y-86534429D01*
X102333551Y-86609001D01*
X101864856Y-86721525D01*
X101862466Y-86722306D01*
X101862456Y-86722309D01*
X101409094Y-86870491D01*
X101409089Y-86870493D01*
X101406696Y-86871275D01*
X100962021Y-87057286D01*
X100533696Y-87278361D01*
X100124481Y-87533075D01*
X100004764Y-87621661D01*
X99768479Y-87796503D01*
X99737012Y-87819787D01*
X99735116Y-87821441D01*
X99735111Y-87821445D01*
X99530536Y-87999907D01*
X99373785Y-88136650D01*
X99037140Y-88481623D01*
X99035522Y-88483572D01*
X98749805Y-88827720D01*
X98729246Y-88852483D01*
X98452087Y-89246842D01*
X98450800Y-89249027D01*
X98211931Y-89654546D01*
X98207447Y-89662158D01*
X98206343Y-89664431D01*
X98206339Y-89664439D01*
X97998010Y-90093475D01*
X97998005Y-90093487D01*
X97996903Y-90095756D01*
X97995984Y-90098114D01*
X97898690Y-90347660D01*
X97821811Y-90544843D01*
X97683300Y-91006525D01*
X97682774Y-91008976D01*
X97682772Y-91008986D01*
X97586137Y-91459748D01*
X97582261Y-91477829D01*
X97564765Y-91610723D01*
X97523261Y-91925984D01*
X97519346Y-91955718D01*
X97519219Y-91958232D01*
X97519218Y-91958239D01*
X97504467Y-92249431D01*
X97498403Y-92369128D01*
X97494959Y-92437113D01*
X61976695Y-92437113D01*
X61925571Y-92374429D01*
X61775930Y-92252385D01*
X61604806Y-92162923D01*
X61598678Y-92161166D01*
X61598676Y-92161165D01*
X61477783Y-92126500D01*
X61419187Y-92109698D01*
X61386904Y-92106817D01*
X61307717Y-92099749D01*
X61307711Y-92099749D01*
X61304924Y-92099500D01*
X59695076Y-92099500D01*
X59692289Y-92099749D01*
X59692283Y-92099749D01*
X59613096Y-92106817D01*
X59580813Y-92109698D01*
X59522217Y-92126500D01*
X59401324Y-92161165D01*
X59401322Y-92161166D01*
X59395194Y-92162923D01*
X59224070Y-92252385D01*
X59074429Y-92374429D01*
X58952385Y-92524070D01*
X58862923Y-92695194D01*
X58809698Y-92880813D01*
X58799500Y-92995076D01*
X58799500Y-94004924D01*
X58809698Y-94119187D01*
X58862923Y-94304806D01*
X58952385Y-94475930D01*
X58956414Y-94480870D01*
X58956416Y-94480873D01*
X59070400Y-94620631D01*
X59074429Y-94625571D01*
X59079369Y-94629600D01*
X59107272Y-94652357D01*
X59147420Y-94710912D01*
X59149537Y-94781877D01*
X59112952Y-94842721D01*
X59107273Y-94847642D01*
X59074429Y-94874429D01*
X59070400Y-94879369D01*
X58968878Y-95003848D01*
X58952385Y-95024070D01*
X58862923Y-95195194D01*
X58861166Y-95201322D01*
X58861165Y-95201324D01*
X58833536Y-95297679D01*
X58809698Y-95380813D01*
X58799500Y-95495076D01*
X58799500Y-96504924D01*
X52500500Y-96504924D01*
X52500500Y-92126500D01*
X52520502Y-92058379D01*
X52574158Y-92011886D01*
X52626500Y-92000500D01*
X53991426Y-92000500D01*
X53992197Y-92000502D01*
X54068624Y-92000969D01*
X54096482Y-91993007D01*
X54113241Y-91989429D01*
X54122644Y-91988083D01*
X54133029Y-91986596D01*
X54133030Y-91986596D01*
X54141918Y-91985323D01*
X54150092Y-91981607D01*
X54150094Y-91981606D01*
X54164788Y-91974925D01*
X54182312Y-91968477D01*
X54197845Y-91964038D01*
X54197849Y-91964036D01*
X54206471Y-91961572D01*
X54230975Y-91946111D01*
X54246058Y-91937974D01*
X54264252Y-91929702D01*
X54264255Y-91929700D01*
X54272428Y-91925984D01*
X54291464Y-91909581D01*
X54306477Y-91898473D01*
X54327720Y-91885070D01*
X54333663Y-91878341D01*
X54333665Y-91878339D01*
X54346897Y-91863356D01*
X54359091Y-91851310D01*
X54374236Y-91838260D01*
X54381037Y-91832400D01*
X54394704Y-91811314D01*
X54405991Y-91796444D01*
X54416683Y-91784338D01*
X54416683Y-91784337D01*
X54422623Y-91777612D01*
X54434934Y-91751391D01*
X54443254Y-91736413D01*
X54454131Y-91719631D01*
X54454132Y-91719628D01*
X54459015Y-91712095D01*
X54466215Y-91688019D01*
X54472871Y-91670589D01*
X54483553Y-91647837D01*
X54488010Y-91619213D01*
X54491793Y-91602495D01*
X54497522Y-91583340D01*
X54497523Y-91583332D01*
X54500093Y-91574739D01*
X54500301Y-91540818D01*
X54500332Y-91540075D01*
X54500500Y-91538991D01*
X54500500Y-91508574D01*
X54500502Y-91507804D01*
X54500788Y-91461009D01*
X54500969Y-91431376D01*
X54500589Y-91430047D01*
X54500500Y-91428737D01*
X54500500Y-88508574D01*
X54500502Y-88507804D01*
X54500673Y-88479807D01*
X54500969Y-88431376D01*
X54493007Y-88403518D01*
X54489429Y-88386757D01*
X54489188Y-88385070D01*
X54485323Y-88358082D01*
X54474925Y-88335212D01*
X54468477Y-88317688D01*
X54464038Y-88302155D01*
X54464036Y-88302151D01*
X54461572Y-88293529D01*
X54446111Y-88269024D01*
X54437974Y-88253942D01*
X54429702Y-88235748D01*
X54429700Y-88235745D01*
X54425984Y-88227572D01*
X54409581Y-88208536D01*
X54398473Y-88193523D01*
X54385070Y-88172280D01*
X54378341Y-88166337D01*
X54378339Y-88166335D01*
X54363356Y-88153103D01*
X54351310Y-88140909D01*
X54338260Y-88125764D01*
X54332400Y-88118963D01*
X54311314Y-88105296D01*
X54296444Y-88094009D01*
X54284338Y-88083317D01*
X54284337Y-88083317D01*
X54277612Y-88077377D01*
X54251391Y-88065066D01*
X54236413Y-88056746D01*
X54219631Y-88045869D01*
X54219628Y-88045868D01*
X54212095Y-88040985D01*
X54188019Y-88033785D01*
X54170589Y-88027129D01*
X54147837Y-88016447D01*
X54119213Y-88011990D01*
X54102495Y-88008207D01*
X54083340Y-88002478D01*
X54083332Y-88002477D01*
X54074739Y-87999907D01*
X54065768Y-87999852D01*
X54065767Y-87999852D01*
X54061038Y-87999823D01*
X54040818Y-87999699D01*
X54040075Y-87999668D01*
X54038991Y-87999500D01*
X54008574Y-87999500D01*
X54007804Y-87999498D01*
X54007191Y-87999494D01*
X53931376Y-87999031D01*
X53930047Y-87999411D01*
X53928737Y-87999500D01*
X51626500Y-87999500D01*
X51558379Y-87979498D01*
X51511886Y-87925842D01*
X51500500Y-87873500D01*
X51500500Y-81102623D01*
X84149500Y-81102623D01*
X84149501Y-83397376D01*
X84156149Y-83458580D01*
X84206474Y-83592824D01*
X84211854Y-83600003D01*
X84211856Y-83600006D01*
X84287072Y-83700365D01*
X84292454Y-83707546D01*
X84299635Y-83712928D01*
X84399994Y-83788144D01*
X84399997Y-83788146D01*
X84407176Y-83793526D01*
X84475188Y-83819022D01*
X84534025Y-83841079D01*
X84534027Y-83841079D01*
X84541420Y-83843851D01*
X84549270Y-83844704D01*
X84549271Y-83844704D01*
X84599226Y-83850131D01*
X84602623Y-83850500D01*
X85791028Y-83850500D01*
X85875749Y-83839761D01*
X85911773Y-83824802D01*
X85925694Y-83819022D01*
X85996277Y-83811372D01*
X86059792Y-83843095D01*
X86096073Y-83904122D01*
X86099722Y-83926818D01*
X86102400Y-83966107D01*
X86147105Y-84145408D01*
X86150136Y-84151515D01*
X86150138Y-84151519D01*
X86188187Y-84228167D01*
X86229269Y-84310926D01*
X86345060Y-84454940D01*
X86489074Y-84570731D01*
X86622854Y-84637140D01*
X86674977Y-84685345D01*
X86692764Y-84754078D01*
X86670568Y-84821515D01*
X86622854Y-84862860D01*
X86489074Y-84929269D01*
X86345060Y-85045060D01*
X86229269Y-85189074D01*
X86188187Y-85271833D01*
X86150138Y-85348481D01*
X86150136Y-85348485D01*
X86147105Y-85354592D01*
X86102400Y-85533893D01*
X86099500Y-85576434D01*
X86099500Y-86423566D01*
X86102400Y-86466107D01*
X86103744Y-86471499D01*
X86103745Y-86471503D01*
X86121318Y-86541984D01*
X86147105Y-86645408D01*
X86150136Y-86651515D01*
X86150138Y-86651519D01*
X86184598Y-86720937D01*
X86229269Y-86810926D01*
X86345060Y-86954940D01*
X86489074Y-87070731D01*
X86622854Y-87137140D01*
X86674977Y-87185345D01*
X86692764Y-87254078D01*
X86670568Y-87321515D01*
X86622854Y-87362860D01*
X86489074Y-87429269D01*
X86345060Y-87545060D01*
X86229269Y-87689074D01*
X86193251Y-87761632D01*
X86150138Y-87848481D01*
X86150136Y-87848485D01*
X86147105Y-87854592D01*
X86145454Y-87861214D01*
X86106750Y-88016447D01*
X86102400Y-88033893D01*
X86102022Y-88039441D01*
X86099696Y-88073564D01*
X86099500Y-88076434D01*
X86099500Y-88923566D01*
X86102400Y-88966107D01*
X86103744Y-88971499D01*
X86103745Y-88971503D01*
X86110926Y-89000304D01*
X86147105Y-89145408D01*
X86150136Y-89151515D01*
X86150138Y-89151519D01*
X86188187Y-89228167D01*
X86229269Y-89310926D01*
X86345060Y-89454940D01*
X86489074Y-89570731D01*
X86571833Y-89611813D01*
X86648481Y-89649862D01*
X86648485Y-89649864D01*
X86654592Y-89652895D01*
X86661214Y-89654546D01*
X86828497Y-89696255D01*
X86828501Y-89696256D01*
X86833893Y-89697600D01*
X86850706Y-89698746D01*
X86874286Y-89700354D01*
X86874299Y-89700354D01*
X86876434Y-89700500D01*
X88123566Y-89700500D01*
X88125701Y-89700354D01*
X88125714Y-89700354D01*
X88149294Y-89698746D01*
X88166107Y-89697600D01*
X88171499Y-89696256D01*
X88171503Y-89696255D01*
X88338786Y-89654546D01*
X88345408Y-89652895D01*
X88351515Y-89649864D01*
X88351519Y-89649862D01*
X88428167Y-89611813D01*
X88510926Y-89570731D01*
X88654940Y-89454940D01*
X88770731Y-89310926D01*
X88811813Y-89228167D01*
X88849862Y-89151519D01*
X88849864Y-89151515D01*
X88852895Y-89145408D01*
X88889074Y-89000304D01*
X88896255Y-88971503D01*
X88896256Y-88971499D01*
X88897600Y-88966107D01*
X88900500Y-88923566D01*
X91599500Y-88923566D01*
X91602400Y-88966107D01*
X91603744Y-88971499D01*
X91603745Y-88971503D01*
X91610926Y-89000304D01*
X91647105Y-89145408D01*
X91650136Y-89151515D01*
X91650138Y-89151519D01*
X91688187Y-89228167D01*
X91729269Y-89310926D01*
X91845060Y-89454940D01*
X91989074Y-89570731D01*
X92071833Y-89611813D01*
X92148481Y-89649862D01*
X92148485Y-89649864D01*
X92154592Y-89652895D01*
X92161214Y-89654546D01*
X92328497Y-89696255D01*
X92328501Y-89696256D01*
X92333893Y-89697600D01*
X92350706Y-89698746D01*
X92374286Y-89700354D01*
X92374299Y-89700354D01*
X92376434Y-89700500D01*
X93023500Y-89700500D01*
X93091621Y-89720502D01*
X93138114Y-89774158D01*
X93149500Y-89826500D01*
X93149501Y-90542477D01*
X93149501Y-90897376D01*
X93156149Y-90958580D01*
X93206474Y-91092824D01*
X93211854Y-91100003D01*
X93211856Y-91100006D01*
X93244141Y-91143083D01*
X93292454Y-91207546D01*
X93299635Y-91212928D01*
X93399994Y-91288144D01*
X93399997Y-91288146D01*
X93407176Y-91293526D01*
X93496561Y-91327034D01*
X93534025Y-91341079D01*
X93534027Y-91341079D01*
X93541420Y-91343851D01*
X93549270Y-91344704D01*
X93549271Y-91344704D01*
X93599217Y-91350130D01*
X93602623Y-91350500D01*
X94749832Y-91350500D01*
X95897376Y-91350499D01*
X95900770Y-91350130D01*
X95900776Y-91350130D01*
X95950722Y-91344705D01*
X95950726Y-91344704D01*
X95958580Y-91343851D01*
X96092824Y-91293526D01*
X96100003Y-91288146D01*
X96100006Y-91288144D01*
X96200365Y-91212928D01*
X96207546Y-91207546D01*
X96255859Y-91143083D01*
X96288144Y-91100006D01*
X96288146Y-91100003D01*
X96293526Y-91092824D01*
X96343851Y-90958580D01*
X96350500Y-90897377D01*
X96350499Y-88602624D01*
X96343851Y-88541420D01*
X96293526Y-88407176D01*
X96288146Y-88399997D01*
X96288144Y-88399994D01*
X96212928Y-88299635D01*
X96207546Y-88292454D01*
X96142381Y-88243615D01*
X96100006Y-88211856D01*
X96100003Y-88211854D01*
X96092824Y-88206474D01*
X95985752Y-88166335D01*
X95965975Y-88158921D01*
X95965973Y-88158921D01*
X95958580Y-88156149D01*
X95950730Y-88155296D01*
X95950729Y-88155296D01*
X95900774Y-88149869D01*
X95900773Y-88149869D01*
X95897377Y-88149500D01*
X94708972Y-88149500D01*
X94624251Y-88160239D01*
X94588227Y-88175198D01*
X94574306Y-88180978D01*
X94503723Y-88188628D01*
X94440208Y-88156905D01*
X94403927Y-88095878D01*
X94400278Y-88073180D01*
X94400079Y-88070265D01*
X94397600Y-88033893D01*
X94393251Y-88016447D01*
X94354546Y-87861214D01*
X94352895Y-87854592D01*
X94349864Y-87848485D01*
X94349862Y-87848481D01*
X94306749Y-87761632D01*
X94270731Y-87689074D01*
X94154940Y-87545060D01*
X94010926Y-87429269D01*
X93877146Y-87362860D01*
X93825023Y-87314655D01*
X93807236Y-87245922D01*
X93829432Y-87178485D01*
X93877146Y-87137140D01*
X94010926Y-87070731D01*
X94154940Y-86954940D01*
X94270731Y-86810926D01*
X94315402Y-86720937D01*
X94349862Y-86651519D01*
X94349864Y-86651515D01*
X94352895Y-86645408D01*
X94378682Y-86541984D01*
X94396255Y-86471503D01*
X94396256Y-86471499D01*
X94397600Y-86466107D01*
X94400500Y-86423566D01*
X94400500Y-85576434D01*
X94397600Y-85533893D01*
X94352895Y-85354592D01*
X94349864Y-85348485D01*
X94349862Y-85348481D01*
X94311813Y-85271833D01*
X94270731Y-85189074D01*
X94154940Y-85045060D01*
X94010926Y-84929269D01*
X93877146Y-84862860D01*
X93825023Y-84814655D01*
X93807236Y-84745922D01*
X93829432Y-84678485D01*
X93877146Y-84637140D01*
X94010926Y-84570731D01*
X94154940Y-84454940D01*
X94270731Y-84310926D01*
X94311813Y-84228167D01*
X94349862Y-84151519D01*
X94349864Y-84151515D01*
X94352895Y-84145408D01*
X94397600Y-83966107D01*
X94398746Y-83949294D01*
X94400354Y-83925714D01*
X94400354Y-83925701D01*
X94400500Y-83923566D01*
X94400500Y-83076434D01*
X94397600Y-83033893D01*
X94352895Y-82854592D01*
X94349864Y-82848485D01*
X94349862Y-82848481D01*
X94311813Y-82771833D01*
X94270731Y-82689074D01*
X94154940Y-82545060D01*
X94010926Y-82429269D01*
X93928167Y-82388187D01*
X93851519Y-82350138D01*
X93851515Y-82350136D01*
X93845408Y-82347105D01*
X93816397Y-82339872D01*
X93671503Y-82303745D01*
X93671499Y-82303744D01*
X93666107Y-82302400D01*
X93649294Y-82301254D01*
X93625714Y-82299646D01*
X93625701Y-82299646D01*
X93623566Y-82299500D01*
X92376434Y-82299500D01*
X92374299Y-82299646D01*
X92374286Y-82299646D01*
X92350706Y-82301254D01*
X92333893Y-82302400D01*
X92328501Y-82303744D01*
X92328497Y-82303745D01*
X92183603Y-82339872D01*
X92154592Y-82347105D01*
X92148485Y-82350136D01*
X92148481Y-82350138D01*
X92071833Y-82388187D01*
X91989074Y-82429269D01*
X91845060Y-82545060D01*
X91729269Y-82689074D01*
X91688187Y-82771833D01*
X91650138Y-82848481D01*
X91650136Y-82848485D01*
X91647105Y-82854592D01*
X91602400Y-83033893D01*
X91599500Y-83076434D01*
X91599500Y-83923566D01*
X91599646Y-83925701D01*
X91599646Y-83925714D01*
X91601254Y-83949294D01*
X91602400Y-83966107D01*
X91647105Y-84145408D01*
X91650136Y-84151515D01*
X91650138Y-84151519D01*
X91688187Y-84228167D01*
X91729269Y-84310926D01*
X91845060Y-84454940D01*
X91989074Y-84570731D01*
X92122854Y-84637140D01*
X92174977Y-84685345D01*
X92192764Y-84754078D01*
X92170568Y-84821515D01*
X92122854Y-84862860D01*
X91989074Y-84929269D01*
X91845060Y-85045060D01*
X91729269Y-85189074D01*
X91688187Y-85271833D01*
X91650138Y-85348481D01*
X91650136Y-85348485D01*
X91647105Y-85354592D01*
X91602400Y-85533893D01*
X91599500Y-85576434D01*
X91599500Y-86423566D01*
X91602400Y-86466107D01*
X91603744Y-86471499D01*
X91603745Y-86471503D01*
X91621318Y-86541984D01*
X91647105Y-86645408D01*
X91650136Y-86651515D01*
X91650138Y-86651519D01*
X91684598Y-86720937D01*
X91729269Y-86810926D01*
X91845060Y-86954940D01*
X91989074Y-87070731D01*
X92122854Y-87137140D01*
X92174977Y-87185345D01*
X92192764Y-87254078D01*
X92170568Y-87321515D01*
X92122854Y-87362860D01*
X91989074Y-87429269D01*
X91845060Y-87545060D01*
X91729269Y-87689074D01*
X91693251Y-87761632D01*
X91650138Y-87848481D01*
X91650136Y-87848485D01*
X91647105Y-87854592D01*
X91645454Y-87861214D01*
X91606750Y-88016447D01*
X91602400Y-88033893D01*
X91602022Y-88039441D01*
X91599696Y-88073564D01*
X91599500Y-88076434D01*
X91599500Y-88923566D01*
X88900500Y-88923566D01*
X88900500Y-88076434D01*
X88900305Y-88073564D01*
X88897978Y-88039441D01*
X88897600Y-88033893D01*
X88893251Y-88016447D01*
X88854546Y-87861214D01*
X88852895Y-87854592D01*
X88849864Y-87848485D01*
X88849862Y-87848481D01*
X88806749Y-87761632D01*
X88770731Y-87689074D01*
X88654940Y-87545060D01*
X88510926Y-87429269D01*
X88377146Y-87362860D01*
X88325023Y-87314655D01*
X88307236Y-87245922D01*
X88329432Y-87178485D01*
X88377146Y-87137140D01*
X88510926Y-87070731D01*
X88654940Y-86954940D01*
X88770731Y-86810926D01*
X88815402Y-86720937D01*
X88849862Y-86651519D01*
X88849864Y-86651515D01*
X88852895Y-86645408D01*
X88878682Y-86541984D01*
X88896255Y-86471503D01*
X88896256Y-86471499D01*
X88897600Y-86466107D01*
X88900500Y-86423566D01*
X88900500Y-85576434D01*
X88897600Y-85533893D01*
X88852895Y-85354592D01*
X88849864Y-85348485D01*
X88849862Y-85348481D01*
X88811813Y-85271833D01*
X88770731Y-85189074D01*
X88654940Y-85045060D01*
X88510926Y-84929269D01*
X88377146Y-84862860D01*
X88325023Y-84814655D01*
X88307236Y-84745922D01*
X88329432Y-84678485D01*
X88377146Y-84637140D01*
X88510926Y-84570731D01*
X88654940Y-84454940D01*
X88770731Y-84310926D01*
X88811813Y-84228167D01*
X88849862Y-84151519D01*
X88849864Y-84151515D01*
X88852895Y-84145408D01*
X88897600Y-83966107D01*
X88898746Y-83949294D01*
X88900354Y-83925714D01*
X88900354Y-83925701D01*
X88900500Y-83923566D01*
X88900500Y-83076434D01*
X88897600Y-83033893D01*
X88852895Y-82854592D01*
X88849864Y-82848485D01*
X88849862Y-82848481D01*
X88811813Y-82771833D01*
X88770731Y-82689074D01*
X88654940Y-82545060D01*
X88510926Y-82429269D01*
X88428167Y-82388187D01*
X88351519Y-82350138D01*
X88351515Y-82350136D01*
X88345408Y-82347105D01*
X88316397Y-82339872D01*
X88171503Y-82303745D01*
X88171499Y-82303744D01*
X88166107Y-82302400D01*
X88149294Y-82301254D01*
X88125714Y-82299646D01*
X88125701Y-82299646D01*
X88123566Y-82299500D01*
X87476500Y-82299500D01*
X87408379Y-82279498D01*
X87361886Y-82225842D01*
X87350500Y-82173500D01*
X87350499Y-81106042D01*
X87350499Y-81102624D01*
X87343851Y-81041420D01*
X87293526Y-80907176D01*
X87288146Y-80899997D01*
X87288144Y-80899994D01*
X87212928Y-80799635D01*
X87207546Y-80792454D01*
X87170162Y-80764436D01*
X87100006Y-80711856D01*
X87100003Y-80711854D01*
X87092824Y-80706474D01*
X87003439Y-80672966D01*
X86965975Y-80658921D01*
X86965973Y-80658921D01*
X86958580Y-80656149D01*
X86950730Y-80655296D01*
X86950729Y-80655296D01*
X86900774Y-80649869D01*
X86900773Y-80649869D01*
X86897377Y-80649500D01*
X85750168Y-80649500D01*
X84602624Y-80649501D01*
X84599230Y-80649870D01*
X84599224Y-80649870D01*
X84549278Y-80655295D01*
X84549274Y-80655296D01*
X84541420Y-80656149D01*
X84407176Y-80706474D01*
X84399997Y-80711854D01*
X84399994Y-80711856D01*
X84329838Y-80764436D01*
X84292454Y-80792454D01*
X84287072Y-80799635D01*
X84211856Y-80899994D01*
X84211854Y-80899997D01*
X84206474Y-80907176D01*
X84156149Y-81041420D01*
X84149500Y-81102623D01*
X51500500Y-81102623D01*
X51500500Y-77626500D01*
X51520502Y-77558379D01*
X51574158Y-77511886D01*
X51626500Y-77500500D01*
X54991426Y-77500500D01*
X54992197Y-77500502D01*
X55068624Y-77500969D01*
X55096482Y-77493007D01*
X55113241Y-77489429D01*
X55122644Y-77488083D01*
X55133029Y-77486596D01*
X55133030Y-77486596D01*
X55141918Y-77485323D01*
X55150092Y-77481607D01*
X55150094Y-77481606D01*
X55164788Y-77474925D01*
X55182312Y-77468477D01*
X55197845Y-77464038D01*
X55197849Y-77464036D01*
X55206471Y-77461572D01*
X55230975Y-77446111D01*
X55246058Y-77437974D01*
X55264252Y-77429702D01*
X55264255Y-77429700D01*
X55272428Y-77425984D01*
X55291464Y-77409581D01*
X55306477Y-77398473D01*
X55327720Y-77385070D01*
X55333663Y-77378341D01*
X55333665Y-77378339D01*
X55346897Y-77363356D01*
X55359091Y-77351310D01*
X55374236Y-77338260D01*
X55381037Y-77332400D01*
X55394704Y-77311314D01*
X55405991Y-77296444D01*
X55416683Y-77284338D01*
X55416683Y-77284337D01*
X55422623Y-77277612D01*
X55434934Y-77251391D01*
X55443254Y-77236413D01*
X55454131Y-77219631D01*
X55454132Y-77219628D01*
X55459015Y-77212095D01*
X55466215Y-77188019D01*
X55472871Y-77170589D01*
X55483553Y-77147837D01*
X55488010Y-77119213D01*
X55491793Y-77102495D01*
X55497522Y-77083340D01*
X55497523Y-77083332D01*
X55500093Y-77074739D01*
X55500301Y-77040818D01*
X55500332Y-77040075D01*
X55500500Y-77038991D01*
X55500500Y-77008574D01*
X55500502Y-77007804D01*
X55500791Y-76960500D01*
X55500969Y-76931376D01*
X55500589Y-76930047D01*
X55500500Y-76928737D01*
X55500500Y-75985572D01*
X102744511Y-75985572D01*
X102744719Y-75989352D01*
X102744719Y-75989353D01*
X102745891Y-76010647D01*
X102762735Y-76316712D01*
X102763396Y-76320439D01*
X102763396Y-76320443D01*
X102794779Y-76497522D01*
X102820608Y-76643265D01*
X102821713Y-76646890D01*
X102821714Y-76646895D01*
X102836845Y-76696540D01*
X102917294Y-76960500D01*
X103051391Y-77263821D01*
X103106777Y-77356917D01*
X103219017Y-77545576D01*
X103219021Y-77545582D01*
X103220957Y-77548836D01*
X103223273Y-77551838D01*
X103253562Y-77591098D01*
X103423536Y-77811415D01*
X103426194Y-77814115D01*
X103606081Y-77996850D01*
X103656193Y-78047756D01*
X103915558Y-78254434D01*
X104197874Y-78428455D01*
X104201321Y-78430044D01*
X104495607Y-78565713D01*
X104495617Y-78565717D01*
X104499051Y-78567300D01*
X104502651Y-78568459D01*
X104502658Y-78568462D01*
X104811119Y-78667795D01*
X104811122Y-78667796D01*
X104814728Y-78668957D01*
X104818444Y-78669676D01*
X104818452Y-78669678D01*
X105136613Y-78731234D01*
X105136622Y-78731235D01*
X105140332Y-78731953D01*
X105144108Y-78732220D01*
X105144113Y-78732221D01*
X105242748Y-78739205D01*
X105402279Y-78750500D01*
X105583386Y-78750500D01*
X105585252Y-78750388D01*
X105585269Y-78750387D01*
X105827262Y-78735798D01*
X105827266Y-78735798D01*
X105831040Y-78735570D01*
X105834762Y-78734890D01*
X105834764Y-78734890D01*
X105952179Y-78713446D01*
X106157285Y-78675987D01*
X106474009Y-78577641D01*
X106776625Y-78441958D01*
X107060748Y-78270902D01*
X107063732Y-78268575D01*
X107063739Y-78268570D01*
X107319268Y-78069287D01*
X107319270Y-78069285D01*
X107322263Y-78066951D01*
X107437078Y-77952736D01*
X151395070Y-77952736D01*
X151407909Y-78220041D01*
X151460118Y-78482512D01*
X151550549Y-78734383D01*
X151552765Y-78738507D01*
X151620982Y-78865465D01*
X151677215Y-78970121D01*
X151680010Y-78973864D01*
X151680012Y-78973867D01*
X151764199Y-79086607D01*
X151837335Y-79184547D01*
X151840642Y-79187825D01*
X151840647Y-79187831D01*
X151990207Y-79336090D01*
X152027390Y-79372950D01*
X152243205Y-79531192D01*
X152247340Y-79533368D01*
X152247344Y-79533370D01*
X152376918Y-79601542D01*
X152480039Y-79655797D01*
X152484458Y-79657340D01*
X152728273Y-79742484D01*
X152728279Y-79742486D01*
X152732690Y-79744026D01*
X152995606Y-79793943D01*
X153122616Y-79798933D01*
X153258345Y-79804266D01*
X153258350Y-79804266D01*
X153263013Y-79804449D01*
X153358943Y-79793943D01*
X153524382Y-79775825D01*
X153524387Y-79775824D01*
X153529035Y-79775315D01*
X153644567Y-79744898D01*
X153783309Y-79708370D01*
X153787829Y-79707180D01*
X153912501Y-79653617D01*
X154029407Y-79603391D01*
X154029410Y-79603389D01*
X154033710Y-79601542D01*
X154037690Y-79599079D01*
X154037694Y-79599077D01*
X154257302Y-79463179D01*
X154257306Y-79463176D01*
X154261275Y-79460720D01*
X154275010Y-79449092D01*
X154461960Y-79290828D01*
X154461961Y-79290827D01*
X154465526Y-79287809D01*
X154537832Y-79205361D01*
X164045316Y-79205361D01*
X164057443Y-79457820D01*
X164106752Y-79705713D01*
X164108331Y-79710111D01*
X164108333Y-79710118D01*
X164190577Y-79939186D01*
X164192160Y-79943595D01*
X164311792Y-80166240D01*
X164314587Y-80169984D01*
X164314589Y-80169986D01*
X164460226Y-80365018D01*
X164460231Y-80365024D01*
X164463018Y-80368756D01*
X164466327Y-80372036D01*
X164466332Y-80372042D01*
X164639200Y-80543408D01*
X164642517Y-80546696D01*
X164646279Y-80549454D01*
X164646282Y-80549457D01*
X164782726Y-80649501D01*
X164846346Y-80696149D01*
X164850481Y-80698325D01*
X164850485Y-80698327D01*
X164967952Y-80760129D01*
X165070026Y-80813833D01*
X165308644Y-80897162D01*
X165313237Y-80898034D01*
X165552369Y-80943435D01*
X165552372Y-80943435D01*
X165556958Y-80944306D01*
X165677081Y-80949026D01*
X165804845Y-80954046D01*
X165804850Y-80954046D01*
X165809513Y-80954229D01*
X165887657Y-80945671D01*
X166056107Y-80927223D01*
X166056112Y-80927222D01*
X166060760Y-80926713D01*
X166178861Y-80895620D01*
X166300658Y-80863554D01*
X166300661Y-80863553D01*
X166305181Y-80862363D01*
X166458848Y-80796342D01*
X166533111Y-80764436D01*
X166533113Y-80764435D01*
X166537405Y-80762591D01*
X166644774Y-80696149D01*
X166748358Y-80632050D01*
X166748362Y-80632047D01*
X166752331Y-80629591D01*
X166846989Y-80549457D01*
X166941672Y-80469302D01*
X166941673Y-80469301D01*
X166945238Y-80466283D01*
X167027886Y-80372042D01*
X167108806Y-80279771D01*
X167108810Y-80279766D01*
X167111888Y-80276256D01*
X167182653Y-80166240D01*
X167246094Y-80067610D01*
X167246096Y-80067607D01*
X167248619Y-80063684D01*
X167352428Y-79833236D01*
X167421034Y-79589976D01*
X167437478Y-79460720D01*
X167452533Y-79342378D01*
X167452533Y-79342372D01*
X167452931Y-79339247D01*
X167455268Y-79250000D01*
X167443126Y-79086607D01*
X167436883Y-79002597D01*
X167436882Y-79002593D01*
X167436537Y-78997945D01*
X167380756Y-78751428D01*
X167328688Y-78617534D01*
X167290843Y-78520216D01*
X167290842Y-78520214D01*
X167289150Y-78515863D01*
X167163731Y-78296426D01*
X167007255Y-78097938D01*
X166823160Y-77924758D01*
X166615489Y-77780691D01*
X166611296Y-77778623D01*
X166392993Y-77670968D01*
X166392990Y-77670967D01*
X166388805Y-77668903D01*
X166344379Y-77654682D01*
X166256337Y-77626500D01*
X166148087Y-77591849D01*
X166143480Y-77591099D01*
X166143477Y-77591098D01*
X165903235Y-77551972D01*
X165903236Y-77551972D01*
X165898624Y-77551221D01*
X165776026Y-77549616D01*
X165650573Y-77547974D01*
X165650570Y-77547974D01*
X165645896Y-77547913D01*
X165395455Y-77581996D01*
X165390965Y-77583305D01*
X165390959Y-77583306D01*
X165287851Y-77613360D01*
X165152803Y-77652723D01*
X165148556Y-77654681D01*
X165148553Y-77654682D01*
X165079600Y-77686470D01*
X164923270Y-77758539D01*
X164919361Y-77761102D01*
X164715812Y-77894554D01*
X164715807Y-77894558D01*
X164711899Y-77897120D01*
X164680933Y-77924758D01*
X164546156Y-78045051D01*
X164523333Y-78065421D01*
X164361715Y-78259746D01*
X164230595Y-78475825D01*
X164228786Y-78480139D01*
X164228785Y-78480141D01*
X164146374Y-78676670D01*
X164132854Y-78708911D01*
X164131703Y-78713443D01*
X164131702Y-78713446D01*
X164123162Y-78747074D01*
X164070639Y-78953883D01*
X164045316Y-79205361D01*
X154537832Y-79205361D01*
X154559365Y-79180807D01*
X154638894Y-79090122D01*
X154638898Y-79090117D01*
X154641976Y-79086607D01*
X154699005Y-78997945D01*
X154784219Y-78865465D01*
X154784222Y-78865460D01*
X154786747Y-78861534D01*
X154896661Y-78617534D01*
X154910501Y-78568462D01*
X154968032Y-78364473D01*
X154968033Y-78364470D01*
X154969302Y-78359969D01*
X154982475Y-78256425D01*
X155002677Y-78097625D01*
X155002677Y-78097621D01*
X155003075Y-78094495D01*
X155005549Y-78000000D01*
X154999958Y-77924758D01*
X154986064Y-77737788D01*
X154986063Y-77737784D01*
X154985717Y-77733123D01*
X154975161Y-77686470D01*
X154927686Y-77476666D01*
X154926655Y-77472109D01*
X154924962Y-77467755D01*
X154831355Y-77227044D01*
X154831354Y-77227042D01*
X154829662Y-77222691D01*
X154696868Y-76990350D01*
X154531190Y-76780189D01*
X154336269Y-76596825D01*
X154116385Y-76444286D01*
X154078725Y-76425714D01*
X154074369Y-76423566D01*
X163099500Y-76423566D01*
X163099646Y-76425701D01*
X163099646Y-76425714D01*
X163100842Y-76443254D01*
X163102400Y-76466107D01*
X163103744Y-76471499D01*
X163103745Y-76471503D01*
X163127056Y-76564996D01*
X163147105Y-76645408D01*
X163150136Y-76651515D01*
X163150138Y-76651519D01*
X163158121Y-76667600D01*
X163229269Y-76810926D01*
X163345060Y-76954940D01*
X163489074Y-77070731D01*
X163514475Y-77083340D01*
X163648481Y-77149862D01*
X163648485Y-77149864D01*
X163654592Y-77152895D01*
X163661214Y-77154546D01*
X163828497Y-77196255D01*
X163828501Y-77196256D01*
X163833893Y-77197600D01*
X163850706Y-77198746D01*
X163874286Y-77200354D01*
X163874299Y-77200354D01*
X163876434Y-77200500D01*
X165123566Y-77200500D01*
X165125701Y-77200354D01*
X165125714Y-77200354D01*
X165149294Y-77198746D01*
X165166107Y-77197600D01*
X165171499Y-77196256D01*
X165171503Y-77196255D01*
X165338786Y-77154546D01*
X165345408Y-77152895D01*
X165351515Y-77149864D01*
X165351519Y-77149862D01*
X165485525Y-77083340D01*
X165510926Y-77070731D01*
X165654940Y-76954940D01*
X165659215Y-76949623D01*
X165660905Y-76947933D01*
X165723217Y-76913907D01*
X165794032Y-76918972D01*
X165839095Y-76947933D01*
X165840785Y-76949623D01*
X165845060Y-76954940D01*
X165989074Y-77070731D01*
X166014475Y-77083340D01*
X166148481Y-77149862D01*
X166148485Y-77149864D01*
X166154592Y-77152895D01*
X166161214Y-77154546D01*
X166328497Y-77196255D01*
X166328501Y-77196256D01*
X166333893Y-77197600D01*
X166350706Y-77198746D01*
X166374286Y-77200354D01*
X166374299Y-77200354D01*
X166376434Y-77200500D01*
X167623566Y-77200500D01*
X167625701Y-77200354D01*
X167625714Y-77200354D01*
X167649294Y-77198746D01*
X167666107Y-77197600D01*
X167671499Y-77196256D01*
X167671503Y-77196255D01*
X167838786Y-77154546D01*
X167845408Y-77152895D01*
X167851515Y-77149864D01*
X167851519Y-77149862D01*
X167985525Y-77083340D01*
X168010926Y-77070731D01*
X168154940Y-76954940D01*
X168270731Y-76810926D01*
X168341879Y-76667600D01*
X168349862Y-76651519D01*
X168349864Y-76651515D01*
X168352895Y-76645408D01*
X168372944Y-76564996D01*
X168396255Y-76471503D01*
X168396256Y-76471499D01*
X168397600Y-76466107D01*
X168399158Y-76443254D01*
X168400354Y-76425714D01*
X168400354Y-76425701D01*
X168400500Y-76423566D01*
X168400500Y-75576434D01*
X168397600Y-75533893D01*
X168396238Y-75528427D01*
X168354546Y-75361214D01*
X168352895Y-75354592D01*
X168349864Y-75348485D01*
X168349862Y-75348481D01*
X168279367Y-75206471D01*
X168270731Y-75189074D01*
X168182190Y-75078952D01*
X168155093Y-75013330D01*
X168167776Y-74943476D01*
X168182190Y-74921048D01*
X168251204Y-74835212D01*
X168270731Y-74810926D01*
X168320530Y-74710607D01*
X168349862Y-74651519D01*
X168349864Y-74651515D01*
X168352895Y-74645408D01*
X168370808Y-74573564D01*
X168396255Y-74471503D01*
X168396256Y-74471499D01*
X168397600Y-74466107D01*
X168400500Y-74423566D01*
X168400500Y-73576434D01*
X168400303Y-73573536D01*
X168397978Y-73539441D01*
X168397600Y-73533893D01*
X168382196Y-73472109D01*
X168354546Y-73361214D01*
X168352895Y-73354592D01*
X168349864Y-73348485D01*
X168349862Y-73348481D01*
X168297805Y-73243615D01*
X168270731Y-73189074D01*
X168182190Y-73078952D01*
X168155093Y-73013330D01*
X168167776Y-72943476D01*
X168182190Y-72921048D01*
X168250000Y-72836710D01*
X168270731Y-72810926D01*
X168344788Y-72661740D01*
X168349862Y-72651519D01*
X168349864Y-72651515D01*
X168352895Y-72645408D01*
X168373685Y-72562026D01*
X168396255Y-72471503D01*
X168396256Y-72471499D01*
X168397600Y-72466107D01*
X168399088Y-72444286D01*
X168400354Y-72425714D01*
X168400354Y-72425701D01*
X168400500Y-72423566D01*
X168400500Y-71576434D01*
X168397600Y-71533893D01*
X168396238Y-71528427D01*
X168354546Y-71361214D01*
X168352895Y-71354592D01*
X168349864Y-71348485D01*
X168349862Y-71348481D01*
X168311813Y-71271833D01*
X168270731Y-71189074D01*
X168154940Y-71045060D01*
X168010926Y-70929269D01*
X167928167Y-70888187D01*
X167851519Y-70850138D01*
X167851515Y-70850136D01*
X167845408Y-70847105D01*
X167816397Y-70839872D01*
X167671503Y-70803745D01*
X167671499Y-70803744D01*
X167666107Y-70802400D01*
X167649294Y-70801254D01*
X167625714Y-70799646D01*
X167625701Y-70799646D01*
X167623566Y-70799500D01*
X166376434Y-70799500D01*
X166374299Y-70799646D01*
X166374286Y-70799646D01*
X166350706Y-70801254D01*
X166333893Y-70802400D01*
X166328501Y-70803744D01*
X166328497Y-70803745D01*
X166183603Y-70839872D01*
X166154592Y-70847105D01*
X166148485Y-70850136D01*
X166148481Y-70850138D01*
X166071833Y-70888187D01*
X165989074Y-70929269D01*
X165845060Y-71045060D01*
X165840785Y-71050377D01*
X165839095Y-71052067D01*
X165776783Y-71086093D01*
X165705968Y-71081028D01*
X165660905Y-71052067D01*
X165659215Y-71050377D01*
X165654940Y-71045060D01*
X165510926Y-70929269D01*
X165428167Y-70888187D01*
X165351519Y-70850138D01*
X165351515Y-70850136D01*
X165345408Y-70847105D01*
X165316397Y-70839872D01*
X165171503Y-70803745D01*
X165171499Y-70803744D01*
X165166107Y-70802400D01*
X165149294Y-70801254D01*
X165125714Y-70799646D01*
X165125701Y-70799646D01*
X165123566Y-70799500D01*
X163876434Y-70799500D01*
X163874299Y-70799646D01*
X163874286Y-70799646D01*
X163850706Y-70801254D01*
X163833893Y-70802400D01*
X163828501Y-70803744D01*
X163828497Y-70803745D01*
X163683603Y-70839872D01*
X163654592Y-70847105D01*
X163648485Y-70850136D01*
X163648481Y-70850138D01*
X163571833Y-70888187D01*
X163489074Y-70929269D01*
X163345060Y-71045060D01*
X163229269Y-71189074D01*
X163188187Y-71271833D01*
X163150138Y-71348481D01*
X163150136Y-71348485D01*
X163147105Y-71354592D01*
X163145454Y-71361214D01*
X163103763Y-71528427D01*
X163102400Y-71533893D01*
X163099500Y-71576434D01*
X163099500Y-72423566D01*
X163099646Y-72425701D01*
X163099646Y-72425714D01*
X163100912Y-72444286D01*
X163102400Y-72466107D01*
X163103744Y-72471499D01*
X163103745Y-72471503D01*
X163126315Y-72562026D01*
X163147105Y-72645408D01*
X163150136Y-72651515D01*
X163150138Y-72651519D01*
X163155212Y-72661740D01*
X163229269Y-72810926D01*
X163250000Y-72836710D01*
X163317810Y-72921048D01*
X163344907Y-72986670D01*
X163332224Y-73056524D01*
X163317810Y-73078952D01*
X163229269Y-73189074D01*
X163202195Y-73243615D01*
X163150138Y-73348481D01*
X163150136Y-73348485D01*
X163147105Y-73354592D01*
X163145454Y-73361214D01*
X163117805Y-73472109D01*
X163102400Y-73533893D01*
X163102022Y-73539441D01*
X163099698Y-73573536D01*
X163099500Y-73576434D01*
X163099500Y-74423566D01*
X163102400Y-74466107D01*
X163103744Y-74471499D01*
X163103745Y-74471503D01*
X163129192Y-74573564D01*
X163147105Y-74645408D01*
X163150136Y-74651515D01*
X163150138Y-74651519D01*
X163179470Y-74710607D01*
X163229269Y-74810926D01*
X163248796Y-74835212D01*
X163317810Y-74921048D01*
X163344907Y-74986670D01*
X163332224Y-75056524D01*
X163317810Y-75078952D01*
X163229269Y-75189074D01*
X163220633Y-75206471D01*
X163150138Y-75348481D01*
X163150136Y-75348485D01*
X163147105Y-75354592D01*
X163145454Y-75361214D01*
X163103763Y-75528427D01*
X163102400Y-75533893D01*
X163099500Y-75576434D01*
X163099500Y-76423566D01*
X154074369Y-76423566D01*
X153880559Y-76327989D01*
X153880556Y-76327988D01*
X153876371Y-76325924D01*
X153859249Y-76320443D01*
X153625942Y-76245761D01*
X153625944Y-76245761D01*
X153621497Y-76244338D01*
X153476134Y-76220665D01*
X153361976Y-76202073D01*
X153361975Y-76202073D01*
X153357364Y-76201322D01*
X153223569Y-76199570D01*
X153094451Y-76197880D01*
X153094448Y-76197880D01*
X153089774Y-76197819D01*
X152824605Y-76233907D01*
X152820118Y-76235215D01*
X152820117Y-76235215D01*
X152788817Y-76244338D01*
X152567683Y-76308792D01*
X152563430Y-76310752D01*
X152563429Y-76310753D01*
X152513729Y-76333665D01*
X152324652Y-76420831D01*
X152317204Y-76425714D01*
X152104764Y-76564996D01*
X152104759Y-76565000D01*
X152100851Y-76567562D01*
X151901197Y-76745760D01*
X151730075Y-76951512D01*
X151727652Y-76955505D01*
X151606015Y-77155957D01*
X151591244Y-77180298D01*
X151589437Y-77184606D01*
X151589437Y-77184607D01*
X151499756Y-77398473D01*
X151487755Y-77427091D01*
X151486604Y-77431623D01*
X151486603Y-77431626D01*
X151429954Y-77654682D01*
X151421881Y-77686470D01*
X151395070Y-77952736D01*
X107437078Y-77952736D01*
X107557382Y-77833060D01*
X107598667Y-77780691D01*
X107760349Y-77575598D01*
X107762699Y-77572617D01*
X107935240Y-77289393D01*
X108003634Y-77138968D01*
X108070937Y-76990945D01*
X108070940Y-76990937D01*
X108072506Y-76987493D01*
X108172509Y-76671288D01*
X108218553Y-76426436D01*
X108233099Y-76349083D01*
X108233100Y-76349078D01*
X108233799Y-76345359D01*
X108255489Y-76014428D01*
X108255143Y-76008131D01*
X108237473Y-75687071D01*
X108237265Y-75683288D01*
X108232667Y-75657340D01*
X108180053Y-75360465D01*
X108179392Y-75356735D01*
X108176877Y-75348481D01*
X108091582Y-75068624D01*
X108082706Y-75039500D01*
X107948609Y-74736179D01*
X107882919Y-74625764D01*
X107780983Y-74454424D01*
X107780979Y-74454418D01*
X107779043Y-74451164D01*
X107576464Y-74188585D01*
X107344291Y-73952736D01*
X151895070Y-73952736D01*
X151907909Y-74220041D01*
X151960118Y-74482512D01*
X151961698Y-74486912D01*
X151961698Y-74486913D01*
X151986771Y-74556746D01*
X152050549Y-74734383D01*
X152052765Y-74738507D01*
X152161219Y-74940350D01*
X152177215Y-74970121D01*
X152180010Y-74973864D01*
X152180012Y-74973867D01*
X152328946Y-75173313D01*
X152337335Y-75184547D01*
X152340642Y-75187825D01*
X152340647Y-75187831D01*
X152515551Y-75361214D01*
X152527390Y-75372950D01*
X152531156Y-75375712D01*
X152531158Y-75375713D01*
X152700250Y-75499696D01*
X152743205Y-75531192D01*
X152747340Y-75533368D01*
X152747344Y-75533370D01*
X152876918Y-75601542D01*
X152980039Y-75655797D01*
X153048078Y-75679557D01*
X153228273Y-75742484D01*
X153228279Y-75742486D01*
X153232690Y-75744026D01*
X153495606Y-75793943D01*
X153622616Y-75798933D01*
X153758345Y-75804266D01*
X153758350Y-75804266D01*
X153763013Y-75804449D01*
X153858943Y-75793943D01*
X154024382Y-75775825D01*
X154024387Y-75775824D01*
X154029035Y-75775315D01*
X154080502Y-75761765D01*
X154283309Y-75708370D01*
X154287829Y-75707180D01*
X154426932Y-75647417D01*
X154529407Y-75603391D01*
X154529410Y-75603389D01*
X154533710Y-75601542D01*
X154537690Y-75599079D01*
X154537694Y-75599077D01*
X154757302Y-75463179D01*
X154757306Y-75463176D01*
X154761275Y-75460720D01*
X154833243Y-75399795D01*
X154961960Y-75290828D01*
X154961961Y-75290827D01*
X154965526Y-75287809D01*
X155036858Y-75206471D01*
X155138894Y-75090122D01*
X155138898Y-75090117D01*
X155141976Y-75086607D01*
X155168700Y-75045060D01*
X155284219Y-74865465D01*
X155284222Y-74865460D01*
X155286747Y-74861534D01*
X155396661Y-74617534D01*
X155406311Y-74583317D01*
X155468032Y-74364473D01*
X155468033Y-74364470D01*
X155469302Y-74359969D01*
X155487103Y-74220041D01*
X155502677Y-74097625D01*
X155502677Y-74097621D01*
X155503075Y-74094495D01*
X155505549Y-74000000D01*
X155500400Y-73930713D01*
X155486064Y-73737788D01*
X155486063Y-73737784D01*
X155485717Y-73733123D01*
X155475161Y-73686470D01*
X155450262Y-73576434D01*
X155426655Y-73472109D01*
X155424962Y-73467755D01*
X155331355Y-73227044D01*
X155331354Y-73227042D01*
X155329662Y-73222691D01*
X155295712Y-73163290D01*
X155245100Y-73074739D01*
X155196868Y-72990350D01*
X155031190Y-72780189D01*
X154836269Y-72596825D01*
X154616385Y-72444286D01*
X154578725Y-72425714D01*
X154380559Y-72327989D01*
X154380556Y-72327988D01*
X154376371Y-72325924D01*
X154121497Y-72244338D01*
X153976134Y-72220665D01*
X153861976Y-72202073D01*
X153861975Y-72202073D01*
X153857364Y-72201322D01*
X153723569Y-72199571D01*
X153594451Y-72197880D01*
X153594448Y-72197880D01*
X153589774Y-72197819D01*
X153324605Y-72233907D01*
X153320118Y-72235215D01*
X153320117Y-72235215D01*
X153288817Y-72244338D01*
X153067683Y-72308792D01*
X153063430Y-72310752D01*
X153063429Y-72310753D01*
X153011512Y-72334687D01*
X152824652Y-72420831D01*
X152817204Y-72425714D01*
X152604764Y-72564996D01*
X152604759Y-72565000D01*
X152600851Y-72567562D01*
X152553149Y-72610138D01*
X152448483Y-72703556D01*
X152401197Y-72745760D01*
X152230075Y-72951512D01*
X152227652Y-72955505D01*
X152101565Y-73163290D01*
X152091244Y-73180298D01*
X152089437Y-73184606D01*
X152089437Y-73184607D01*
X151990212Y-73421232D01*
X151987755Y-73427091D01*
X151986604Y-73431623D01*
X151986603Y-73431626D01*
X151949281Y-73578583D01*
X151921881Y-73686470D01*
X151895070Y-73952736D01*
X107344291Y-73952736D01*
X107343807Y-73952244D01*
X107084442Y-73745566D01*
X106802126Y-73571545D01*
X106708748Y-73528497D01*
X106504393Y-73434287D01*
X106504383Y-73434283D01*
X106500949Y-73432700D01*
X106497349Y-73431541D01*
X106497342Y-73431538D01*
X106188881Y-73332205D01*
X106188878Y-73332204D01*
X106185272Y-73331043D01*
X106181556Y-73330324D01*
X106181548Y-73330322D01*
X105863387Y-73268766D01*
X105863378Y-73268765D01*
X105859668Y-73268047D01*
X105855892Y-73267780D01*
X105855887Y-73267779D01*
X105757252Y-73260795D01*
X105597721Y-73249500D01*
X105416614Y-73249500D01*
X105414748Y-73249612D01*
X105414731Y-73249613D01*
X105172738Y-73264202D01*
X105172734Y-73264202D01*
X105168960Y-73264430D01*
X105165238Y-73265110D01*
X105165236Y-73265110D01*
X105149155Y-73268047D01*
X104842715Y-73324013D01*
X104525991Y-73422359D01*
X104223375Y-73558042D01*
X103939252Y-73729098D01*
X103936268Y-73731425D01*
X103936261Y-73731430D01*
X103915103Y-73747931D01*
X103677737Y-73933049D01*
X103442618Y-74166940D01*
X103237301Y-74427383D01*
X103064760Y-74710607D01*
X103030507Y-74785942D01*
X102929063Y-75009055D01*
X102929060Y-75009063D01*
X102927494Y-75012507D01*
X102827491Y-75328712D01*
X102814124Y-75399795D01*
X102776438Y-75600205D01*
X102766201Y-75654641D01*
X102744511Y-75985572D01*
X55500500Y-75985572D01*
X55500500Y-75008574D01*
X55500502Y-75007804D01*
X55500914Y-74940350D01*
X55500969Y-74931376D01*
X55493007Y-74903518D01*
X55489429Y-74886757D01*
X55486596Y-74866971D01*
X55486596Y-74866970D01*
X55485323Y-74858082D01*
X55474925Y-74835212D01*
X55468477Y-74817688D01*
X55464038Y-74802155D01*
X55464036Y-74802151D01*
X55461572Y-74793529D01*
X55446111Y-74769024D01*
X55437974Y-74753942D01*
X55429702Y-74735748D01*
X55429700Y-74735745D01*
X55425984Y-74727572D01*
X55409581Y-74708536D01*
X55398473Y-74693523D01*
X55385070Y-74672280D01*
X55378341Y-74666337D01*
X55378339Y-74666335D01*
X55363356Y-74653103D01*
X55351310Y-74640909D01*
X55338260Y-74625764D01*
X55332400Y-74618963D01*
X55311314Y-74605296D01*
X55296444Y-74594009D01*
X55284338Y-74583317D01*
X55284337Y-74583317D01*
X55277612Y-74577377D01*
X55251391Y-74565066D01*
X55236413Y-74556746D01*
X55219631Y-74545869D01*
X55219628Y-74545868D01*
X55212095Y-74540985D01*
X55188019Y-74533785D01*
X55170589Y-74527129D01*
X55147837Y-74516447D01*
X55119213Y-74511990D01*
X55102495Y-74508207D01*
X55083340Y-74502478D01*
X55083332Y-74502477D01*
X55074739Y-74499907D01*
X55065768Y-74499852D01*
X55065767Y-74499852D01*
X55061038Y-74499823D01*
X55040818Y-74499699D01*
X55040075Y-74499668D01*
X55038991Y-74499500D01*
X55008574Y-74499500D01*
X55007804Y-74499498D01*
X55007191Y-74499494D01*
X54931376Y-74499031D01*
X54930047Y-74499411D01*
X54928737Y-74499500D01*
X51626500Y-74499500D01*
X51558379Y-74479498D01*
X51511886Y-74425842D01*
X51500500Y-74373500D01*
X51500500Y-69952736D01*
X151395070Y-69952736D01*
X151395294Y-69957403D01*
X151395294Y-69957408D01*
X151399725Y-70049651D01*
X151407909Y-70220041D01*
X151460118Y-70482512D01*
X151550549Y-70734383D01*
X151552765Y-70738507D01*
X151657563Y-70933546D01*
X151677215Y-70970121D01*
X151680010Y-70973864D01*
X151680012Y-70973867D01*
X151834542Y-71180807D01*
X151837335Y-71184547D01*
X151840642Y-71187825D01*
X151840647Y-71187831D01*
X152002706Y-71348481D01*
X152027390Y-71372950D01*
X152031156Y-71375712D01*
X152031158Y-71375713D01*
X152191437Y-71493234D01*
X152243205Y-71531192D01*
X152247340Y-71533368D01*
X152247344Y-71533370D01*
X152376918Y-71601542D01*
X152480039Y-71655797D01*
X152484458Y-71657340D01*
X152728273Y-71742484D01*
X152728279Y-71742486D01*
X152732690Y-71744026D01*
X152995606Y-71793943D01*
X153122616Y-71798933D01*
X153258345Y-71804266D01*
X153258350Y-71804266D01*
X153263013Y-71804449D01*
X153358943Y-71793943D01*
X153524382Y-71775825D01*
X153524387Y-71775824D01*
X153529035Y-71775315D01*
X153644567Y-71744898D01*
X153783309Y-71708370D01*
X153787829Y-71707180D01*
X154008535Y-71612358D01*
X154029407Y-71603391D01*
X154029410Y-71603389D01*
X154033710Y-71601542D01*
X154037690Y-71599079D01*
X154037694Y-71599077D01*
X154257302Y-71463179D01*
X154257306Y-71463176D01*
X154261275Y-71460720D01*
X154282110Y-71443082D01*
X154461960Y-71290828D01*
X154461961Y-71290827D01*
X154465526Y-71287809D01*
X154487920Y-71262274D01*
X154638894Y-71090122D01*
X154638898Y-71090117D01*
X154641976Y-71086607D01*
X154647437Y-71078117D01*
X154784219Y-70865465D01*
X154784222Y-70865460D01*
X154786747Y-70861534D01*
X154896661Y-70617534D01*
X154942718Y-70454229D01*
X154968032Y-70364473D01*
X154968033Y-70364470D01*
X154969302Y-70359969D01*
X154975449Y-70311653D01*
X155002677Y-70097625D01*
X155002677Y-70097621D01*
X155003075Y-70094495D01*
X155005549Y-70000000D01*
X155003268Y-69969302D01*
X154986064Y-69737788D01*
X154986063Y-69737784D01*
X154985717Y-69733123D01*
X154975161Y-69686470D01*
X154948265Y-69567610D01*
X154926655Y-69472109D01*
X154924962Y-69467755D01*
X154831355Y-69227044D01*
X154831354Y-69227042D01*
X154829662Y-69222691D01*
X154820392Y-69206471D01*
X154725389Y-69040252D01*
X154696868Y-68990350D01*
X154531190Y-68780189D01*
X154451646Y-68705361D01*
X164045316Y-68705361D01*
X164045540Y-68710027D01*
X164045540Y-68710033D01*
X164050311Y-68809350D01*
X164057443Y-68957820D01*
X164067539Y-69008574D01*
X164105283Y-69198327D01*
X164106752Y-69205713D01*
X164108331Y-69210111D01*
X164108333Y-69210118D01*
X164174935Y-69395620D01*
X164192160Y-69443595D01*
X164311792Y-69666240D01*
X164314587Y-69669984D01*
X164314589Y-69669986D01*
X164460226Y-69865018D01*
X164460231Y-69865024D01*
X164463018Y-69868756D01*
X164466327Y-69872036D01*
X164466332Y-69872042D01*
X164637321Y-70041545D01*
X164642517Y-70046696D01*
X164646279Y-70049454D01*
X164646282Y-70049457D01*
X164842575Y-70193384D01*
X164846346Y-70196149D01*
X164850481Y-70198325D01*
X164850485Y-70198327D01*
X164967952Y-70260129D01*
X165070026Y-70313833D01*
X165308644Y-70397162D01*
X165313237Y-70398034D01*
X165552369Y-70443435D01*
X165552372Y-70443435D01*
X165556958Y-70444306D01*
X165677081Y-70449026D01*
X165804845Y-70454046D01*
X165804850Y-70454046D01*
X165809513Y-70454229D01*
X165887657Y-70445671D01*
X166056107Y-70427223D01*
X166056112Y-70427222D01*
X166060760Y-70426713D01*
X166096096Y-70417410D01*
X166300658Y-70363554D01*
X166300661Y-70363553D01*
X166305181Y-70362363D01*
X166537405Y-70262591D01*
X166644774Y-70196149D01*
X166748358Y-70132050D01*
X166748362Y-70132047D01*
X166752331Y-70129591D01*
X166846989Y-70049457D01*
X166941672Y-69969302D01*
X166941673Y-69969301D01*
X166945238Y-69966283D01*
X167027886Y-69872042D01*
X167108806Y-69779771D01*
X167108810Y-69779766D01*
X167111888Y-69776256D01*
X167130547Y-69747248D01*
X167246094Y-69567610D01*
X167246096Y-69567607D01*
X167248619Y-69563684D01*
X167256028Y-69547236D01*
X209744958Y-69547236D01*
X209771014Y-69845065D01*
X209804942Y-69996850D01*
X209826769Y-70094495D01*
X209836232Y-70136832D01*
X209837676Y-70140756D01*
X209837676Y-70140757D01*
X209866847Y-70220041D01*
X209939464Y-70417410D01*
X209941415Y-70421110D01*
X209941417Y-70421115D01*
X210076945Y-70678166D01*
X210078898Y-70681870D01*
X210252084Y-70925565D01*
X210289791Y-70966001D01*
X210405536Y-71090122D01*
X210455979Y-71144216D01*
X210687000Y-71333979D01*
X210941090Y-71491521D01*
X211213783Y-71614074D01*
X211346428Y-71653617D01*
X211496290Y-71698293D01*
X211496292Y-71698293D01*
X211500289Y-71699485D01*
X211504409Y-71700138D01*
X211504411Y-71700138D01*
X211556386Y-71708370D01*
X211795575Y-71746254D01*
X211838135Y-71748187D01*
X211887659Y-71750436D01*
X211887678Y-71750436D01*
X211889078Y-71750500D01*
X212075834Y-71750500D01*
X212298309Y-71735723D01*
X212591377Y-71676630D01*
X212874056Y-71579296D01*
X212877789Y-71577427D01*
X212877793Y-71577425D01*
X213137640Y-71447303D01*
X213137642Y-71447302D01*
X213141378Y-71445431D01*
X213388647Y-71277387D01*
X213487421Y-71189074D01*
X213608403Y-71080904D01*
X213608404Y-71080903D01*
X213611520Y-71078117D01*
X213806079Y-70851120D01*
X213957772Y-70617534D01*
X213966629Y-70603896D01*
X213966632Y-70603891D01*
X213968908Y-70600386D01*
X214097145Y-70330319D01*
X214131080Y-70224626D01*
X214187258Y-70049651D01*
X214187258Y-70049650D01*
X214188538Y-70045664D01*
X214219777Y-69872042D01*
X214240741Y-69755531D01*
X214240742Y-69755526D01*
X214241480Y-69751422D01*
X214242100Y-69737788D01*
X214254853Y-69456934D01*
X214254853Y-69456929D01*
X214255042Y-69452764D01*
X214254086Y-69441828D01*
X214240930Y-69291463D01*
X214228986Y-69154935D01*
X214163768Y-68863168D01*
X214132061Y-68776989D01*
X214082682Y-68642781D01*
X214060536Y-68582590D01*
X214018361Y-68502597D01*
X213923055Y-68321834D01*
X213923054Y-68321833D01*
X213921102Y-68318130D01*
X213747916Y-68074435D01*
X213544021Y-67855784D01*
X213313000Y-67666021D01*
X213058910Y-67508479D01*
X212786217Y-67385926D01*
X212573603Y-67322543D01*
X212503710Y-67301707D01*
X212503708Y-67301707D01*
X212499711Y-67300515D01*
X212495591Y-67299862D01*
X212495589Y-67299862D01*
X212361491Y-67278623D01*
X212204425Y-67253746D01*
X212161865Y-67251813D01*
X212112341Y-67249564D01*
X212112322Y-67249564D01*
X212110922Y-67249500D01*
X211924166Y-67249500D01*
X211701691Y-67264277D01*
X211408623Y-67323370D01*
X211125944Y-67420704D01*
X211122211Y-67422573D01*
X211122207Y-67422575D01*
X210946268Y-67510679D01*
X210858622Y-67554569D01*
X210611353Y-67722613D01*
X210608239Y-67725397D01*
X210608238Y-67725398D01*
X210528797Y-67796426D01*
X210388480Y-67921883D01*
X210193921Y-68148880D01*
X210151991Y-68213446D01*
X210071179Y-68337886D01*
X210031092Y-68399614D01*
X210029298Y-68403392D01*
X210029297Y-68403394D01*
X210007151Y-68450034D01*
X209902855Y-68669681D01*
X209901576Y-68673664D01*
X209901575Y-68673667D01*
X209818834Y-68931376D01*
X209811462Y-68954336D01*
X209804982Y-68990350D01*
X209762395Y-69227044D01*
X209758520Y-69248578D01*
X209758331Y-69252745D01*
X209758330Y-69252752D01*
X209745147Y-69543066D01*
X209744958Y-69547236D01*
X167256028Y-69547236D01*
X167352428Y-69333236D01*
X167421034Y-69089976D01*
X167437766Y-68958455D01*
X167452533Y-68842378D01*
X167452533Y-68842372D01*
X167452931Y-68839247D01*
X167453611Y-68813304D01*
X167455185Y-68753160D01*
X167455268Y-68750000D01*
X167451605Y-68700707D01*
X167436883Y-68502597D01*
X167436882Y-68502593D01*
X167436537Y-68497945D01*
X167380756Y-68251428D01*
X167377707Y-68243588D01*
X167290843Y-68020216D01*
X167290842Y-68020214D01*
X167289150Y-68015863D01*
X167286710Y-68011593D01*
X167233843Y-67919096D01*
X167163731Y-67796426D01*
X167060928Y-67666021D01*
X167010147Y-67601606D01*
X167010144Y-67601603D01*
X167007255Y-67597938D01*
X166823160Y-67424758D01*
X166675432Y-67322275D01*
X166619331Y-67283356D01*
X166619328Y-67283354D01*
X166615489Y-67280691D01*
X166581643Y-67264000D01*
X166392993Y-67170968D01*
X166392990Y-67170967D01*
X166388805Y-67168903D01*
X166344379Y-67154682D01*
X166292403Y-67138045D01*
X166148087Y-67091849D01*
X166143480Y-67091099D01*
X166143477Y-67091098D01*
X165903235Y-67051972D01*
X165903236Y-67051972D01*
X165898624Y-67051221D01*
X165776026Y-67049616D01*
X165650573Y-67047974D01*
X165650570Y-67047974D01*
X165645896Y-67047913D01*
X165395455Y-67081996D01*
X165390965Y-67083305D01*
X165390959Y-67083306D01*
X165287851Y-67113360D01*
X165152803Y-67152723D01*
X165148556Y-67154681D01*
X165148553Y-67154682D01*
X165113226Y-67170968D01*
X164923270Y-67258539D01*
X164919361Y-67261102D01*
X164715812Y-67394554D01*
X164715807Y-67394558D01*
X164711899Y-67397120D01*
X164683379Y-67422575D01*
X164535492Y-67554569D01*
X164523333Y-67565421D01*
X164361715Y-67759746D01*
X164230595Y-67975825D01*
X164228786Y-67980139D01*
X164228785Y-67980141D01*
X164136062Y-68201261D01*
X164132854Y-68208911D01*
X164131703Y-68213443D01*
X164131702Y-68213446D01*
X164123495Y-68245761D01*
X164070639Y-68453883D01*
X164045316Y-68705361D01*
X154451646Y-68705361D01*
X154336269Y-68596825D01*
X154116385Y-68444286D01*
X154109004Y-68440646D01*
X153880559Y-68327989D01*
X153880556Y-68327988D01*
X153876371Y-68325924D01*
X153831102Y-68311433D01*
X153625942Y-68245761D01*
X153625944Y-68245761D01*
X153621497Y-68244338D01*
X153431810Y-68213446D01*
X153361976Y-68202073D01*
X153361975Y-68202073D01*
X153357364Y-68201322D01*
X153223569Y-68199570D01*
X153094451Y-68197880D01*
X153094448Y-68197880D01*
X153089774Y-68197819D01*
X152824605Y-68233907D01*
X152820118Y-68235215D01*
X152820117Y-68235215D01*
X152764492Y-68251428D01*
X152567683Y-68308792D01*
X152563430Y-68310752D01*
X152563429Y-68310753D01*
X152524436Y-68328729D01*
X152324652Y-68420831D01*
X152301006Y-68436334D01*
X152104764Y-68564996D01*
X152104759Y-68565000D01*
X152100851Y-68567562D01*
X152032161Y-68628870D01*
X151951675Y-68700707D01*
X151901197Y-68745760D01*
X151730075Y-68951512D01*
X151727652Y-68955505D01*
X151595483Y-69173313D01*
X151591244Y-69180298D01*
X151589437Y-69184606D01*
X151589437Y-69184607D01*
X151489629Y-69422623D01*
X151487755Y-69427091D01*
X151486604Y-69431623D01*
X151486603Y-69431626D01*
X151428065Y-69662119D01*
X151421881Y-69686470D01*
X151395070Y-69952736D01*
X51500500Y-69952736D01*
X51500500Y-67705361D01*
X86545316Y-67705361D01*
X86545540Y-67710027D01*
X86545540Y-67710033D01*
X86547928Y-67759746D01*
X86557443Y-67957820D01*
X86569208Y-68016967D01*
X86605182Y-68197819D01*
X86606752Y-68205713D01*
X86608331Y-68210111D01*
X86608333Y-68210118D01*
X86654207Y-68337886D01*
X86692160Y-68443595D01*
X86811792Y-68666240D01*
X86814587Y-68669984D01*
X86814589Y-68669986D01*
X86960226Y-68865018D01*
X86960231Y-68865024D01*
X86963018Y-68868756D01*
X86966327Y-68872036D01*
X86966332Y-68872042D01*
X87139200Y-69043408D01*
X87142517Y-69046696D01*
X87146279Y-69049454D01*
X87146282Y-69049457D01*
X87284563Y-69150848D01*
X87346346Y-69196149D01*
X87350481Y-69198325D01*
X87350485Y-69198327D01*
X87412541Y-69230976D01*
X87570026Y-69313833D01*
X87664707Y-69346897D01*
X87793585Y-69391903D01*
X87808644Y-69397162D01*
X87813237Y-69398034D01*
X88052369Y-69443435D01*
X88052372Y-69443435D01*
X88056958Y-69444306D01*
X88166527Y-69448611D01*
X88304845Y-69454046D01*
X88304850Y-69454046D01*
X88309513Y-69454229D01*
X88387657Y-69445671D01*
X88556107Y-69427223D01*
X88556112Y-69427222D01*
X88560760Y-69426713D01*
X88625829Y-69409582D01*
X88800658Y-69363554D01*
X88800661Y-69363553D01*
X88805181Y-69362363D01*
X89037405Y-69262591D01*
X89144774Y-69196149D01*
X89248358Y-69132050D01*
X89248362Y-69132047D01*
X89252331Y-69129591D01*
X89346989Y-69049457D01*
X89441672Y-68969302D01*
X89441673Y-68969301D01*
X89445238Y-68966283D01*
X89527886Y-68872042D01*
X89608806Y-68779771D01*
X89608810Y-68779766D01*
X89611888Y-68776256D01*
X89626744Y-68753160D01*
X89746094Y-68567610D01*
X89746096Y-68567607D01*
X89748619Y-68563684D01*
X89852428Y-68333236D01*
X89921034Y-68089976D01*
X89931475Y-68007904D01*
X89952533Y-67842378D01*
X89952533Y-67842372D01*
X89952931Y-67839247D01*
X89955268Y-67750000D01*
X89951605Y-67700707D01*
X89936883Y-67502597D01*
X89936882Y-67502593D01*
X89936537Y-67497945D01*
X89880756Y-67251428D01*
X89848664Y-67168903D01*
X89790843Y-67020216D01*
X89790842Y-67020214D01*
X89789150Y-67015863D01*
X89663731Y-66796426D01*
X89507255Y-66597938D01*
X89323160Y-66424758D01*
X89115489Y-66280691D01*
X89110140Y-66278053D01*
X88892993Y-66170968D01*
X88892990Y-66170967D01*
X88888805Y-66168903D01*
X88844379Y-66154682D01*
X88792403Y-66138045D01*
X88648087Y-66091849D01*
X88643480Y-66091099D01*
X88643477Y-66091098D01*
X88403235Y-66051972D01*
X88403236Y-66051972D01*
X88398624Y-66051221D01*
X88276026Y-66049616D01*
X88150573Y-66047974D01*
X88150570Y-66047974D01*
X88145896Y-66047913D01*
X87895455Y-66081996D01*
X87890965Y-66083305D01*
X87890959Y-66083306D01*
X87787851Y-66113360D01*
X87652803Y-66152723D01*
X87648556Y-66154681D01*
X87648553Y-66154682D01*
X87613226Y-66170968D01*
X87423270Y-66258539D01*
X87393506Y-66278053D01*
X87215812Y-66394554D01*
X87215807Y-66394558D01*
X87211899Y-66397120D01*
X87164213Y-66439681D01*
X87092549Y-66503644D01*
X87023333Y-66565421D01*
X86861715Y-66759746D01*
X86730595Y-66975825D01*
X86728786Y-66980139D01*
X86728785Y-66980141D01*
X86648765Y-67170968D01*
X86632854Y-67208911D01*
X86631703Y-67213443D01*
X86631702Y-67213446D01*
X86609287Y-67301707D01*
X86570639Y-67453883D01*
X86545316Y-67705361D01*
X51500500Y-67705361D01*
X51500500Y-60626500D01*
X51520502Y-60558379D01*
X51574158Y-60511886D01*
X51626500Y-60500500D01*
X53991426Y-60500500D01*
X53992197Y-60500502D01*
X54068624Y-60500969D01*
X54096482Y-60493007D01*
X54113241Y-60489429D01*
X54122644Y-60488083D01*
X54133029Y-60486596D01*
X54133030Y-60486596D01*
X54141918Y-60485323D01*
X54150092Y-60481607D01*
X54150094Y-60481606D01*
X54164788Y-60474925D01*
X54182312Y-60468477D01*
X54197845Y-60464038D01*
X54197849Y-60464036D01*
X54206471Y-60461572D01*
X54230975Y-60446111D01*
X54246058Y-60437974D01*
X54264252Y-60429702D01*
X54264255Y-60429700D01*
X54272428Y-60425984D01*
X54291464Y-60409581D01*
X54306477Y-60398473D01*
X54327720Y-60385070D01*
X54333663Y-60378341D01*
X54333665Y-60378339D01*
X54346897Y-60363356D01*
X54359091Y-60351310D01*
X54374236Y-60338260D01*
X54381037Y-60332400D01*
X54394704Y-60311314D01*
X54405991Y-60296444D01*
X54416683Y-60284338D01*
X54416683Y-60284337D01*
X54422623Y-60277612D01*
X54434934Y-60251391D01*
X54443254Y-60236413D01*
X54454131Y-60219631D01*
X54454132Y-60219628D01*
X54459015Y-60212095D01*
X54466215Y-60188019D01*
X54472871Y-60170589D01*
X54483553Y-60147837D01*
X54488010Y-60119213D01*
X54491793Y-60102495D01*
X54497522Y-60083340D01*
X54497523Y-60083332D01*
X54500093Y-60074739D01*
X54500301Y-60040818D01*
X54500332Y-60040075D01*
X54500500Y-60038991D01*
X54500500Y-60008574D01*
X54500502Y-60007804D01*
X54500788Y-59961009D01*
X54500969Y-59931376D01*
X54500589Y-59930047D01*
X54500500Y-59928737D01*
X54500500Y-57126500D01*
X54520502Y-57058379D01*
X54574158Y-57011886D01*
X54626500Y-57000500D01*
X55873500Y-57000500D01*
X55941621Y-57020502D01*
G37*
G04 #@! TD.AperFunction*
M02*
